<?xml version="1.0" standalone="no"?>
<!DOCTYPE svg PUBLIC "-//W3C//DTD SVG 20010904//EN"
 "http://www.w3.org/TR/2001/REC-SVG-20010904/DTD/svg10.dtd">
<svg version="1.0" xmlns="http://www.w3.org/2000/svg"
 width="4263.000000pt" height="4263.000000pt" viewBox="0 0 4263.000000 4263.000000"
 preserveAspectRatio="xMidYMid meet">
<metadata>
Created by potrace 1.14, written by Peter Selinger 2001-2017
</metadata>
<g transform="translate(0.000000,4263.000000) scale(0.100000,-0.100000)"
fill="#000000" stroke="none">
<path d="M22546 34439 c3 -5 0 -18 -7 -30 -8 -16 -8 -20 1 -14 9 6 9 3 1 -13
-8 -15 -8 -21 1 -24 8 -3 8 -10 -2 -27 -7 -15 -8 -21 -1 -17 15 10 14 -7 -1
-22 -9 -9 -9 -12 0 -12 10 0 10 -5 2 -20 -7 -14 -7 -20 0 -20 5 0 10 -5 10
-11 0 -5 -3 -8 -7 -6 -5 3 -8 -6 -8 -19 0 -13 3 -24 6 -24 9 0 4 -53 -5 -68
-4 -7 -1 -12 6 -12 9 0 9 -3 -2 -10 -8 -5 -10 -10 -4 -10 12 0 12 -29 0 -48
-4 -6 -3 -12 1 -12 5 0 9 -9 9 -20 0 -11 -4 -20 -8 -20 -4 0 -3 -11 2 -24 6
-17 5 -26 -3 -30 -9 -3 -9 -5 1 -5 10 -1 10 -6 2 -21 -6 -12 -7 -20 -1 -20 11
0 9 -19 -3 -39 -5 -8 -4 -16 3 -20 8 -6 9 -15 2 -34 -6 -15 -7 -27 -2 -27 10
0 9 -26 -2 -36 -3 -4 -2 -15 4 -25 5 -11 6 -19 1 -19 -4 0 -8 -9 -8 -20 0 -11
3 -20 7 -20 9 0 6 -27 -4 -36 -3 -4 -2 -15 4 -25 5 -11 6 -19 1 -19 -4 0 -8
-9 -8 -20 0 -11 4 -20 8 -20 5 0 4 -10 -3 -21 -9 -17 -8 -20 3 -13 11 6 11 5
-1 -9 -11 -14 -11 -17 0 -17 9 0 10 -3 4 -8 -13 -9 -18 -32 -7 -32 5 0 9 -7 9
-15 0 -8 -3 -15 -6 -15 -3 0 -6 -13 -6 -30 0 -16 4 -30 8 -30 4 0 3 -10 -4
-21 -8 -17 -8 -23 1 -29 8 -5 9 -13 4 -21 -13 -21 -13 -39 -1 -39 7 0 5 -5 -3
-10 -12 -8 -12 -10 -1 -10 11 0 11 -3 1 -15 -9 -11 -9 -15 -1 -15 9 0 9 -5 0
-21 -6 -12 -7 -24 -3 -28 11 -7 15 -41 5 -41 -4 0 -7 -13 -6 -30 0 -16 4 -30
9 -30 5 0 3 -7 -4 -15 -10 -12 -10 -15 0 -15 9 0 9 -4 2 -12 -5 -7 -6 -22 -2
-33 4 -11 3 -29 -3 -40 -7 -13 -7 -20 2 -23 6 -2 11 -8 11 -13 0 -6 -4 -8 -9
-5 -4 3 -6 -7 -4 -22 6 -41 6 -46 -2 -64 -4 -11 -3 -18 4 -18 6 0 11 -5 11
-11 0 -5 -4 -8 -8 -5 -7 4 -9 -41 -2 -54 1 -3 1 -9 0 -15 -8 -39 -6 -75 3 -75
8 0 7 -4 -2 -9 -9 -6 -10 -10 -2 -16 9 -5 9 -11 -1 -23 -11 -13 -11 -14 1 -7
10 6 12 4 6 -5 -12 -20 -12 -60 0 -60 5 0 4 -4 -4 -9 -9 -6 -10 -11 -2 -15 6
-4 8 -13 4 -19 -11 -19 -13 -58 -1 -51 5 4 4 -4 -3 -17 -7 -13 -12 -24 -11
-24 0 0 5 -13 11 -28 6 -16 7 -26 2 -22 -6 3 -9 -4 -8 -15 1 -11 5 -20 10 -20
5 0 5 -6 0 -12 -13 -16 -13 -48 0 -48 5 0 4 -7 -4 -16 -10 -13 -10 -17 0 -24
10 -5 10 -9 2 -15 -9 -5 -9 -10 -1 -20 8 -9 8 -15 0 -20 -7 -4 -7 -12 0 -25 7
-13 6 -20 -3 -23 -9 -3 -9 -7 0 -17 8 -9 9 -19 2 -31 -11 -21 -9 -41 6 -51 7
-5 7 -8 0 -8 -11 0 -13 -209 -2 -226 3 -6 3 -14 0 -18 -12 -11 -12 -40 -1 -53
6 -7 6 -13 1 -13 -4 0 -8 -31 -8 -69 0 -39 4 -67 9 -63 5 3 5 -1 0 -9 -12 -19
-13 -149 -1 -173 5 -10 5 -16 0 -13 -12 8 -11 -356 2 -365 6 -5 6 -8 -2 -8
-14 0 -13 -42 2 -52 7 -5 7 -8 -1 -8 -13 0 -13 -398 0 -419 6 -9 5 -12 0 -8
-6 3 -10 -460 -11 -1226 -1 -678 -2 -1236 -3 -1242 -1 -5 -2 -12 -1 -15 1 -3
3 -64 4 -137 1 -79 5 -129 11 -126 5 4 6 1 1 -7 -12 -19 -12 -54 -1 -62 6 -4
5 -12 -2 -21 -7 -7 -9 -17 -5 -20 3 -4 7 -24 9 -44 1 -21 7 -39 13 -41 6 -2
17 -10 25 -17 7 -8 16 -11 20 -8 3 4 6 0 6 -7 0 -7 3 -11 6 -7 3 3 15 -3 27
-14 11 -10 29 -19 39 -19 10 0 18 -4 18 -10 0 -5 7 -10 15 -10 8 0 15 -5 15
-11 0 -5 5 -7 10 -4 6 3 10 1 10 -5 0 -6 5 -8 10 -5 6 3 10 2 10 -3 0 -9 50
-37 63 -34 4 1 7 -2 7 -8 0 -5 7 -10 15 -10 8 0 15 -5 15 -11 0 -5 4 -8 9 -4
6 3 13 -1 18 -8 4 -7 23 -19 41 -26 17 -8 32 -18 32 -23 0 -5 5 -6 10 -3 6 3
10 1 10 -5 0 -6 5 -8 10 -5 6 3 10 1 10 -4 0 -6 5 -11 10 -11 6 0 29 -12 53
-27 41 -27 46 -29 68 -32 5 0 7 -5 4 -11 -3 -5 3 -10 14 -10 12 0 21 -5 21
-11 0 -5 4 -8 9 -5 5 3 14 -1 21 -9 7 -8 19 -15 26 -15 8 0 14 -5 14 -11 0 -5
5 -7 10 -4 6 3 10 1 10 -5 0 -6 5 -8 10 -5 6 3 10 2 10 -3 0 -5 21 -20 48 -33
26 -13 50 -28 54 -34 4 -5 8 -6 8 -2 0 5 7 1 16 -7 8 -9 22 -16 30 -16 8 0 14
-4 14 -10 0 -5 9 -10 21 -10 11 0 17 -4 14 -10 -6 -9 8 -14 28 -11 4 0 7 -3 7
-9 0 -5 7 -10 15 -10 8 0 15 -5 15 -11 0 -6 7 -9 15 -5 9 3 15 0 15 -9 0 -8 9
-15 20 -15 11 0 20 -6 20 -12 0 -9 4 -8 10 2 8 13 10 12 10 -4 0 -11 3 -17 6
-13 4 3 12 1 20 -6 39 -35 44 -38 44 -26 0 7 8 3 18 -7 9 -10 24 -20 32 -22 8
-2 21 -10 28 -19 6 -9 12 -13 12 -9 0 5 7 3 15 -4 8 -7 15 -9 15 -5 0 4 9 -3
21 -16 11 -13 18 -17 14 -9 -5 11 -2 10 7 -2 8 -9 20 -18 28 -20 7 -2 22 -11
32 -21 10 -10 23 -15 28 -12 6 4 10 2 10 -3 0 -4 16 -14 35 -22 19 -8 35 -17
35 -22 0 -4 7 -8 15 -8 8 0 15 -4 15 -10 0 -5 9 -10 20 -10 11 0 25 -9 32 -19
6 -10 17 -17 23 -15 7 3 18 -2 25 -11 7 -8 18 -15 24 -15 7 0 22 -9 34 -20 12
-12 22 -18 22 -14 0 3 6 1 13 -5 8 -6 17 -7 21 -3 4 4 6 0 4 -8 -2 -9 3 -14
13 -12 9 1 19 -5 23 -13 3 -9 10 -14 15 -11 5 3 12 -1 15 -10 4 -10 14 -14 26
-11 11 3 18 2 15 -3 -5 -8 24 -25 38 -22 4 1 7 -2 7 -8 0 -5 7 -10 15 -10 9 0
18 -7 22 -16 5 -13 7 -13 14 -2 7 10 9 8 9 -6 0 -11 5 -16 14 -13 8 3 17 -1
20 -9 3 -9 10 -12 16 -9 5 3 10 2 10 -3 0 -5 8 -12 18 -15 18 -6 74 -38 82
-48 7 -8 44 -22 53 -21 4 1 7 -2 7 -8 0 -5 17 -17 38 -27 20 -9 40 -22 44 -27
5 -7 8 -7 8 -1 0 6 6 3 13 -5 7 -9 27 -22 45 -29 17 -7 32 -18 32 -23 0 -5 5
-6 10 -3 6 3 13 -1 16 -9 3 -9 10 -14 14 -11 5 3 15 -1 23 -9 8 -8 17 -13 19
-10 3 2 11 -2 18 -11 7 -8 18 -15 25 -15 7 0 18 -7 25 -15 7 -8 16 -12 21 -9
5 3 9 0 9 -5 0 -6 7 -11 15 -11 8 0 15 -5 15 -12 0 -6 3 -8 7 -5 3 4 12 -1 20
-11 9 -10 11 -11 7 -2 -7 13 -6 13 12 0 10 -8 21 -17 24 -20 3 -3 17 -11 33
-17 15 -7 27 -17 27 -23 0 -5 7 -10 15 -10 14 0 53 -18 65 -30 3 -3 14 -12 24
-20 18 -13 19 -13 12 0 -4 9 -2 8 7 -2 8 -10 17 -15 20 -11 4 3 7 2 7 -4 0 -6
15 -16 33 -24 17 -7 34 -15 37 -19 3 -3 18 -14 34 -24 19 -12 26 -13 21 -5 -3
8 3 3 15 -11 12 -14 24 -24 26 -23 8 3 44 -10 44 -17 0 -4 14 -13 30 -20 17
-7 30 -17 30 -22 0 -5 5 -6 10 -3 6 3 10 1 10 -5 0 -7 7 -10 15 -6 8 3 15 2
15 -3 0 -4 16 -16 35 -27 19 -10 35 -22 35 -26 0 -4 6 -5 13 -2 7 2 22 -5 34
-16 12 -11 26 -20 31 -20 4 0 18 -9 30 -20 12 -12 22 -18 22 -14 0 4 8 0 18
-9 9 -8 19 -15 22 -15 11 0 60 -26 60 -32 0 -3 16 -12 35 -19 22 -8 33 -17 29
-24 -4 -7 -3 -9 1 -5 7 7 90 -34 105 -51 3 -3 12 -7 20 -9 8 -2 17 -8 18 -13
2 -5 13 -9 23 -9 11 0 17 -4 14 -10 -3 -5 1 -10 9 -10 9 0 16 -5 16 -10 0 -6
3 -9 8 -9 22 4 42 -2 37 -11 -6 -9 17 -15 40 -10 6 1 7 -2 3 -5 -10 -10 34
-44 49 -38 7 3 13 0 13 -6 0 -6 7 -11 15 -11 8 0 15 -4 15 -10 0 -5 7 -10 15
-10 8 0 15 -5 15 -11 0 -5 4 -8 9 -4 5 3 16 -1 24 -9 8 -8 17 -12 21 -9 3 4 6
1 6 -6 0 -7 5 -9 10 -6 6 3 10 1 10 -4 0 -6 7 -11 15 -11 8 0 15 -5 15 -11 0
-5 5 -7 10 -4 6 3 10 2 10 -4 0 -9 26 -21 43 -20 5 0 16 -8 25 -19 17 -19 51
-36 65 -34 4 1 7 -3 7 -9 0 -5 5 -7 10 -4 6 3 10 2 10 -4 0 -5 9 -13 20 -16
11 -3 27 -13 35 -21 8 -8 24 -16 35 -17 11 -1 22 -7 24 -13 6 -16 66 -45 77
-38 5 3 9 -2 9 -11 0 -9 5 -13 10 -10 6 3 10 2 10 -3 0 -6 14 -15 30 -21 17
-5 30 -15 30 -21 0 -6 4 -9 9 -6 5 3 21 -4 37 -16 15 -13 24 -16 20 -8 -5 8 0
6 11 -6 11 -11 35 -26 52 -34 17 -7 31 -17 31 -22 0 -5 5 -6 10 -3 5 3 10 1
10 -5 0 -6 5 -8 10 -5 6 3 10 2 10 -4 0 -5 16 -15 35 -22 19 -7 35 -17 35 -21
0 -4 7 -8 15 -8 8 0 15 -5 15 -12 0 -6 3 -8 7 -5 3 4 13 1 22 -7 9 -8 23 -16
31 -18 8 -2 22 -11 31 -20 9 -10 19 -15 23 -11 3 3 6 1 6 -6 0 -7 6 -11 12 -9
7 3 19 -1 26 -9 8 -7 19 -10 25 -6 7 4 8 0 3 -13 -4 -10 -4 -15 0 -11 4 4 13
2 21 -5 7 -6 16 -8 19 -5 3 2 17 -6 31 -19 14 -13 29 -21 34 -18 5 3 9 1 9 -3
0 -5 22 -20 50 -34 27 -13 50 -28 50 -32 0 -5 5 -5 10 -2 6 3 10 1 10 -4 0 -6
7 -11 15 -11 8 0 15 -5 15 -10 0 -6 3 -9 8 -8 11 3 56 -23 65 -38 4 -7 14 -11
22 -8 8 4 15 2 15 -4 0 -5 21 -20 46 -32 26 -12 53 -28 61 -36 8 -8 19 -12 24
-9 5 4 9 1 9 -4 0 -6 7 -11 15 -11 8 0 15 -3 15 -8 0 -4 15 -14 33 -22 37 -16
72 -46 73 -63 0 -7 -3 -20 -8 -29 -5 -9 -4 -19 2 -23 5 -3 6 -16 2 -28 -7 -21
-8 -40 -2 -62 7 -24 5 -41 -5 -47 -7 -6 -7 -10 0 -15 12 -9 13 -23 2 -40 -4
-6 -3 -14 2 -18 11 -6 10 -45 -1 -45 -4 0 -3 -11 2 -25 7 -18 6 -25 -3 -25 -8
0 -8 -3 -1 -8 13 -9 12 -94 -1 -104 -7 -5 -6 -11 1 -15 10 -7 12 -53 4 -88 -1
-5 -1 -12 0 -15 7 -17 4 -70 -5 -70 -6 0 -7 -3 0 -8 14 -10 16 -104 2 -95 -6
4 -7 1 -2 -7 12 -20 13 -130 0 -130 -6 0 -7 -3 0 -8 9 -6 12 -80 5 -107 -1 -5
-1 -14 0 -20 7 -28 6 -112 -1 -126 -5 -9 -5 -20 -1 -24 10 -10 10 -77 -1 -99
-5 -10 -5 -16 0 -13 4 3 8 -231 8 -519 0 -343 3 -524 10 -524 7 0 7 -3 0 -8
-6 -4 -10 -215 -10 -597 0 -382 4 -593 10 -597 7 -5 7 -8 0 -8 -11 0 -11 -211
0 -229 3 -6 3 -11 -2 -11 -4 0 -8 -18 -8 -40 0 -22 4 -40 8 -40 5 0 5 -5 2
-10 -9 -14 -10 -135 -1 -148 3 -6 2 -14 -4 -17 -8 -5 -7 -11 1 -21 9 -11 8
-14 -2 -14 -11 0 -11 -2 1 -10 13 -9 13 -10 0 -10 -13 0 -13 -1 0 -10 13 -9
13 -10 0 -10 -13 0 -13 -1 0 -10 8 -5 11 -10 5 -10 -6 0 -8 -32 -5 -85 3 -47
2 -85 -2 -85 -3 0 -4 -8 -2 -17 9 -39 9 -163 -1 -163 -5 0 -3 -5 5 -10 9 -6
11 -10 3 -10 -7 0 -10 -7 -7 -15 9 -23 10 -105 1 -105 -5 0 -5 -5 -1 -11 8
-14 9 -103 1 -116 -3 -5 -2 -14 2 -21 4 -7 6 -31 4 -54 -2 -26 2 -45 9 -50 9
-5 8 -8 -6 -8 -15 0 -16 -3 -7 -14 9 -11 9 -15 -1 -19 -11 -4 -11 -6 0 -6 9
-1 10 -6 2 -20 -7 -14 -7 -22 0 -26 8 -5 8 -11 1 -19 -6 -7 -8 -16 -4 -19 10
-11 9 -67 -2 -67 -7 0 -7 -3 0 -8 12 -8 14 -362 2 -362 -5 0 -5 -5 -1 -12 11
-18 11 -122 0 -130 -7 -5 -7 -8 2 -8 6 0 12 -7 12 -16 0 -9 -5 -12 -12 -8 -6
4 -8 3 -5 -3 3 -5 8 -31 12 -57 4 -35 2 -45 -6 -40 -8 5 -9 3 -4 -6 12 -20 15
-100 2 -100 -5 0 -2 -9 7 -19 12 -14 14 -21 6 -26 -7 -4 -10 -16 -7 -26 3 -10
1 -22 -4 -25 -6 -4 -6 -10 0 -17 5 -7 7 -27 5 -44 -2 -22 1 -33 9 -33 8 0 8
-3 1 -8 -14 -10 -15 -163 0 -155 6 3 5 0 -1 -8 -16 -16 -17 -43 -2 -33 7 4 7
-1 -1 -15 -8 -17 -8 -26 0 -36 6 -7 7 -16 2 -19 -5 -3 -8 -57 -7 -120 2 -83
-1 -114 -9 -109 -6 4 -6 0 1 -9 7 -8 10 -18 6 -22 -4 -4 -1 -11 7 -16 8 -6 10
-10 4 -10 -6 0 -10 -19 -8 -47 1 -27 -3 -54 -10 -62 -9 -12 -8 -13 2 -7 11 6
12 1 9 -23 -3 -17 -1 -32 4 -32 5 -1 15 -2 22 -3 6 -1 15 -5 18 -9 4 -5 18
-10 33 -10 14 -1 26 -5 26 -8 0 -3 7 -6 15 -7 8 -1 22 -3 30 -4 8 -1 15 -5 15
-10 0 -4 9 -8 21 -8 11 0 30 -10 41 -22 11 -13 16 -16 12 -8 -4 8 3 5 15 -7
12 -13 28 -23 36 -23 8 0 20 -8 27 -17 7 -10 20 -19 28 -21 8 -2 17 -8 18 -13
2 -5 13 -9 23 -9 11 0 17 -4 14 -10 -3 -5 3 -10 13 -10 11 0 23 -7 26 -16 3
-8 10 -13 15 -10 5 3 14 0 20 -8 7 -8 23 -17 37 -20 14 -4 22 -11 19 -16 -3
-6 2 -10 13 -10 10 0 27 -8 38 -17 11 -10 26 -19 34 -21 8 -2 17 -7 20 -12 3
-5 12 -10 20 -12 8 -2 23 -11 34 -20 11 -10 25 -18 32 -18 6 0 14 -7 18 -15 3
-9 12 -12 22 -8 12 4 15 3 10 -5 -5 -8 0 -12 13 -12 12 0 21 -4 21 -10 0 -5 6
-10 14 -10 7 0 19 -7 26 -15 7 -8 16 -12 21 -9 5 3 9 0 9 -5 0 -6 7 -11 15
-11 9 0 18 -6 21 -13 3 -8 10 -14 17 -14 7 0 31 -12 55 -26 23 -15 42 -25 42
-22 0 3 9 -4 20 -15 12 -12 25 -18 30 -15 6 4 10 2 10 -2 0 -5 14 -17 30 -26
17 -10 30 -15 30 -12 0 4 7 0 15 -7 36 -33 46 -39 55 -33 6 3 10 1 10 -4 0 -6
7 -11 15 -11 8 0 15 -4 15 -9 0 -9 60 -37 73 -33 4 1 7 -5 7 -14 0 -8 5 -12
10 -9 6 3 10 3 10 -2 0 -8 52 -34 67 -34 4 0 12 -7 16 -15 4 -8 14 -14 22 -14
7 0 20 -6 27 -12 20 -19 78 -50 78 -42 0 4 8 -3 19 -14 10 -12 26 -22 35 -22
9 0 16 -5 16 -11 0 -5 5 -7 10 -4 6 3 10 1 10 -5 0 -6 5 -8 10 -5 6 3 10 2 10
-3 0 -9 50 -37 63 -34 4 1 7 -3 7 -8 0 -6 7 -10 15 -10 8 0 15 -5 15 -11 0 -5
4 -8 9 -4 6 3 13 -1 18 -9 4 -8 10 -15 13 -15 17 0 80 -33 80 -41 0 -6 6 -10
14 -10 8 0 21 -7 30 -15 8 -9 17 -15 18 -14 4 3 92 -42 98 -50 3 -3 19 -13 35
-21 17 -8 33 -19 36 -23 3 -4 15 -9 27 -10 11 0 19 -4 16 -8 -2 -4 11 -13 29
-20 17 -7 38 -19 45 -26 8 -7 18 -11 23 -8 5 4 9 2 9 -3 0 -5 21 -20 48 -33
26 -13 49 -26 52 -29 3 -3 19 -12 35 -20 17 -8 32 -17 35 -20 3 -3 14 -10 25
-16 79 -43 122 -67 131 -75 6 -5 14 -6 17 -2 4 3 7 1 7 -5 0 -7 7 -12 15 -12
8 0 15 -5 15 -11 0 -5 5 -7 10 -4 6 3 13 -1 16 -9 3 -9 10 -14 14 -11 4 3 19
-4 33 -15 14 -11 29 -20 33 -20 4 0 16 -8 27 -18 15 -12 19 -13 13 -2 -5 9 -2
8 7 -2 8 -10 17 -15 20 -11 4 3 7 1 7 -5 0 -7 7 -12 15 -12 8 0 15 -4 15 -10
0 -5 8 -10 19 -10 10 0 24 -6 31 -14 6 -8 19 -12 27 -9 10 4 14 2 10 -4 -7
-10 19 -28 36 -25 4 1 7 -3 7 -9 0 -5 5 -7 10 -4 6 3 10 2 10 -3 0 -9 50 -37
63 -34 4 1 7 -3 7 -8 0 -6 7 -10 15 -10 8 0 15 -4 15 -10 0 -5 9 -10 20 -10
11 0 20 -4 20 -9 0 -5 17 -16 38 -25 39 -17 62 -30 101 -58 13 -10 27 -15 32
-12 5 3 9 0 9 -5 0 -6 9 -11 21 -11 11 0 17 -4 14 -10 -3 -5 6 -12 20 -16 14
-3 25 -10 25 -15 0 -5 3 -8 8 -7 8 1 45 -13 52 -21 3 -3 25 -17 50 -30 25 -14
48 -29 52 -35 4 -6 8 -8 8 -4 0 4 26 -8 58 -27 31 -19 63 -35 70 -35 6 0 12
-4 12 -9 0 -5 11 -12 25 -15 14 -4 25 -11 25 -17 0 -6 5 -7 10 -4 6 3 10 3 10
-2 0 -4 15 -14 33 -22 17 -8 40 -21 50 -29 9 -8 17 -12 17 -8 0 4 12 -2 26
-13 15 -12 33 -21 40 -21 8 0 14 -4 14 -10 0 -5 7 -10 15 -10 8 0 15 -4 15
-10 0 -5 4 -9 8 -7 11 3 82 -36 82 -45 0 -4 8 -5 18 -1 9 3 14 3 10 -2 -8 -8
35 -35 57 -35 7 0 16 -7 19 -16 4 -9 9 -14 12 -11 4 3 13 -1 21 -9 8 -8 19
-12 24 -9 5 4 9 1 9 -4 0 -6 7 -11 15 -11 8 0 15 -5 15 -11 0 -5 5 -7 10 -4 6
3 10 1 10 -5 0 -6 5 -8 10 -5 6 3 10 1 10 -6 0 -7 3 -10 6 -6 4 3 14 -2 23
-11 9 -10 12 -12 7 -5 -6 10 -5 12 7 7 8 -3 18 -12 21 -20 3 -9 10 -13 15 -10
5 3 14 -1 21 -9 7 -8 19 -15 26 -15 8 0 14 -5 14 -12 0 -6 3 -8 6 -5 4 3 18
-2 32 -13 13 -11 28 -17 33 -14 5 3 12 -1 15 -10 3 -9 12 -12 21 -9 11 4 14 2
9 -5 -4 -7 -1 -12 8 -12 9 0 25 -9 35 -19 11 -11 21 -17 24 -15 3 3 20 -4 38
-15 19 -11 49 -28 67 -37 17 -9 32 -20 32 -25 0 -5 7 -9 15 -9 23 0 65 -22 59
-32 -3 -5 -2 -8 3 -6 14 3 83 -30 83 -41 0 -5 8 -8 18 -7 9 2 24 -4 32 -13 8
-9 22 -17 30 -19 8 -2 17 -7 20 -10 6 -9 81 -45 95 -47 6 0 9 -6 8 -13 -2 -7
0 -11 5 -10 14 4 52 -13 52 -23 0 -6 4 -8 9 -4 5 3 17 -2 25 -11 9 -8 16 -13
16 -9 0 3 13 -3 29 -14 15 -11 31 -18 35 -14 3 3 6 1 6 -6 0 -7 4 -10 9 -7 5
4 11 3 13 -1 4 -10 56 -41 91 -54 15 -6 27 -15 27 -19 0 -5 9 -7 20 -5 11 2
18 0 15 -6 -4 -5 0 -9 8 -9 8 0 20 -7 27 -15 6 -8 15 -14 18 -13 16 3 41 -15
35 -25 -3 -6 -1 -7 5 -3 12 7 70 -20 83 -38 4 -5 12 -5 18 -2 6 4 11 0 11 -9
0 -9 4 -14 9 -10 5 3 16 -2 24 -10 12 -11 17 -12 20 -2 3 7 6 5 6 -5 1 -10 4
-17 9 -16 12 4 72 -24 72 -33 0 -5 7 -5 17 -2 11 4 14 3 9 -5 -4 -7 -1 -12 7
-12 8 0 29 -8 48 -17 19 -10 40 -18 46 -19 19 -3 19 13452 0 13474 -6 9 -7 13
-1 9 7 -4 11 7 10 31 0 28 -8 43 -30 64 -17 14 -34 24 -38 22 -4 -3 -8 0 -8 5
0 6 -7 11 -15 11 -8 0 -15 5 -15 10 0 6 -7 10 -15 10 -8 0 -15 5 -15 10 0 6
-7 10 -15 10 -7 0 -18 8 -24 17 -5 10 -13 15 -16 11 -4 -4 -16 2 -28 13 -11
10 -27 19 -36 19 -8 0 -11 3 -8 7 8 7 -38 33 -59 33 -8 0 -14 5 -14 10 0 6 -9
10 -20 10 -11 0 -20 5 -20 11 0 5 -4 8 -9 5 -5 -4 -11 -3 -13 1 -1 5 -18 17
-37 27 -23 13 -31 15 -26 5 5 -8 -3 -4 -17 9 -13 12 -31 22 -40 22 -9 0 -18 4
-20 8 -5 12 -119 74 -126 68 -3 -3 -11 2 -18 12 -7 9 -16 18 -21 18 -28 5 -52
18 -47 25 3 5 -4 9 -14 9 -11 0 -25 7 -32 15 -7 8 -16 12 -21 9 -5 -3 -12 2
-15 11 -5 13 -9 13 -22 3 -12 -10 -14 -10 -8 -1 4 9 -7 19 -34 30 -22 10 -40
21 -40 25 0 5 -7 8 -15 8 -8 0 -15 5 -15 11 0 5 -4 8 -9 5 -5 -3 -14 1 -21 10
-7 8 -19 13 -27 10 -7 -3 -13 1 -13 10 0 10 -6 14 -15 10 -10 -3 -15 1 -15 11
0 9 -3 13 -7 10 -3 -4 -17 0 -30 8 -13 9 -23 12 -23 8 0 -5 -4 -3 -8 2 -12 17
-122 80 -122 70 0 -5 -29 17 -55 42 -11 10 -14 10 -18 0 -3 -7 -6 -4 -6 6 -1
10 -5 16 -9 13 -5 -3 -19 2 -32 11 -20 14 -71 42 -137 77 -13 6 -23 15 -23 19
0 5 -4 5 -10 2 -5 -3 -10 -3 -10 2 0 4 -18 17 -40 27 -22 11 -40 23 -40 28 0
4 -3 7 -7 6 -15 -4 -53 13 -53 23 0 6 -4 7 -10 4 -5 -3 -10 -3 -10 2 0 4 -24
19 -53 33 -28 14 -57 32 -64 40 -7 8 -13 11 -13 5 0 -6 -3 -5 -8 1 -7 12 -94
59 -101 55 -2 -2 -7 3 -12 10 -4 7 -15 14 -24 15 -9 1 -25 12 -35 24 -10 12
-20 20 -22 19 -7 -5 -48 13 -48 22 0 5 -9 9 -20 9 -11 0 -20 3 -20 8 0 4 -10
12 -23 18 -49 23 -112 59 -115 67 -2 4 -10 7 -18 7 -9 0 -12 5 -8 12 4 6 3 8
-4 4 -6 -3 -16 0 -24 7 -7 7 -17 14 -23 15 -22 5 -65 27 -65 34 0 5 -7 8 -15
8 -8 0 -15 5 -15 11 0 5 -5 7 -10 4 -6 -3 -13 1 -16 9 -3 9 -10 13 -15 10 -5
-3 -9 0 -9 6 0 6 -4 9 -8 6 -5 -3 -30 10 -57 29 -26 19 -52 32 -56 29 -5 -3
-9 0 -9 5 0 6 -7 11 -15 11 -8 0 -15 4 -15 8 0 5 -16 14 -35 22 -19 8 -35 17
-35 21 0 4 -10 11 -21 14 -12 4 -40 20 -63 35 -22 16 -44 26 -48 24 -5 -3 -8
-1 -8 4 0 6 -17 17 -38 25 -21 8 -44 22 -51 31 -8 9 -22 16 -33 16 -10 0 -16
5 -13 10 3 6 -3 10 -14 10 -12 0 -21 5 -21 10 0 6 -5 10 -11 10 -7 0 -18 8
-26 18 -8 10 -11 11 -7 2 7 -13 5 -13 -9 -1 -9 7 -17 10 -17 5 0 -5 -4 -4 -8
1 -11 17 -72 57 -72 49 0 -4 -7 1 -16 12 -8 10 -13 12 -9 4 4 -8 -3 -4 -15 10
-12 14 -25 24 -29 24 -11 -2 -51 19 -51 27 0 5 -7 6 -15 3 -8 -4 -15 -1 -15 6
0 7 -7 10 -14 7 -10 -4 -13 -1 -9 9 3 8 2 14 -3 13 -12 -3 -49 15 -99 46 -22
14 -47 28 -55 32 -8 3 -23 13 -32 21 -10 8 -18 12 -18 8 0 -4 -7 0 -16 8 -8 9
-22 16 -30 16 -8 0 -14 5 -14 10 0 6 -7 10 -15 10 -8 0 -15 5 -15 11 0 5 -4 8
-9 4 -6 -3 -14 2 -19 11 -5 9 -12 15 -15 15 -13 -1 -77 33 -77 41 0 5 -4 6
-10 3 -5 -3 -10 -1 -10 4 0 6 -9 11 -21 11 -11 0 -17 5 -14 10 3 6 1 11 -4 11
-6 1 -16 2 -21 3 -6 0 -14 7 -19 14 -5 8 -10 13 -12 13 -12 -2 -49 13 -49 19
0 4 -13 13 -30 20 -16 7 -30 17 -30 22 0 5 -4 7 -9 3 -5 -3 -16 1 -24 9 -8 8
-17 12 -21 9 -3 -4 -6 -1 -6 6 0 7 -4 10 -9 7 -5 -3 -12 1 -15 10 -3 8 -10 12
-16 9 -5 -3 -10 -2 -10 3 0 4 -16 14 -35 22 -19 8 -35 17 -35 20 0 4 -18 15
-40 25 -22 10 -45 24 -51 31 -6 8 -15 11 -20 8 -5 -3 -12 2 -15 10 -3 9 -10
13 -15 10 -5 -3 -9 0 -9 6 0 7 -6 10 -12 8 -7 -3 -24 6 -37 18 -14 13 -28 21
-33 18 -4 -3 -8 -2 -8 3 0 4 -18 17 -40 27 -22 11 -40 23 -40 28 0 5 -4 6 -10
3 -5 -3 -10 -1 -10 4 0 6 -9 11 -21 11 -11 0 -17 5 -14 10 3 6 -3 10 -15 10
-12 0 -19 4 -16 8 3 5 0 9 -7 9 -7 0 -31 11 -53 26 -23 14 -45 23 -48 20 -3
-4 -6 -2 -6 4 0 6 -13 16 -30 23 -16 7 -30 16 -30 21 0 5 -7 9 -15 9 -8 0 -15
5 -15 10 0 6 -7 10 -16 10 -8 0 -22 7 -31 15 -8 8 -19 13 -24 10 -5 -4 -9 -1
-9 4 0 6 -7 11 -15 11 -8 0 -15 3 -15 8 0 4 -15 14 -32 22 -18 7 -51 26 -73
41 -22 15 -43 25 -47 23 -5 -3 -8 -1 -8 4 0 5 -18 17 -40 28 -22 10 -40 22
-40 27 0 4 -7 7 -15 7 -8 0 -15 5 -15 11 0 5 -4 8 -10 4 -5 -3 -18 3 -30 15
-11 11 -26 20 -34 20 -8 0 -17 7 -20 16 -4 10 -14 14 -26 11 -12 -3 -17 -1
-14 5 3 5 -3 12 -15 15 -12 3 -21 10 -21 15 0 5 -4 6 -10 3 -5 -3 -10 -1 -10
4 0 6 -3 10 -7 9 -8 -2 -19 4 -88 48 -16 10 -42 24 -57 31 -16 7 -28 17 -28
24 0 6 -6 9 -14 6 -8 -3 -27 6 -42 21 -15 15 -24 20 -19 12 4 -8 -3 -5 -17 8
-14 13 -35 24 -46 25 -11 0 -18 5 -16 9 3 4 -2 8 -10 8 -9 0 -16 5 -16 10 0 6
-9 10 -20 10 -11 0 -20 7 -20 15 0 9 -6 12 -15 9 -8 -4 -15 -2 -15 3 0 5 -16
15 -35 23 -19 8 -35 17 -35 22 0 4 -7 8 -15 8 -9 0 -18 7 -21 15 -4 8 -10 13
-14 10 -4 -3 -19 5 -34 16 -14 11 -26 17 -26 12 0 -4 -7 0 -15 11 -7 10 -18
15 -24 11 -6 -3 -11 -2 -11 4 0 6 -11 13 -25 17 -14 3 -22 10 -19 15 3 5 -2 9
-10 9 -9 0 -16 5 -16 12 0 6 -3 8 -7 5 -3 -4 -15 1 -26 10 -15 13 -18 14 -12
3 4 -8 -3 -5 -17 8 -13 12 -30 22 -36 22 -7 0 -12 4 -12 9 0 5 -11 12 -25 15
-16 4 -23 11 -19 18 4 7 3 8 -4 4 -12 -7 -56 17 -47 25 2 3 -5 6 -17 6 -12 1
-24 6 -27 11 -3 5 -26 19 -51 33 -25 13 -47 27 -50 31 -3 3 -12 8 -20 10 -8 2
-23 11 -32 21 -9 10 -19 18 -22 18 -22 -3 -38 0 -33 5 8 8 -55 44 -65 37 -5
-2 -8 3 -8 11 0 9 -3 15 -7 15 -19 -3 -33 2 -47 17 -9 9 -24 17 -34 19 -9 1
-16 8 -15 14 2 6 0 10 -5 9 -12 -2 -60 20 -67 32 -3 5 -11 8 -16 5 -5 -4 -9
-2 -9 2 0 5 -22 20 -50 34 -27 13 -50 27 -50 32 0 4 -7 7 -16 7 -8 0 -12 4 -9
10 3 6 -1 7 -9 4 -9 -3 -16 -1 -16 6 0 6 -4 8 -10 5 -5 -3 -10 -1 -10 4 0 6
-6 11 -14 11 -8 0 -16 3 -18 8 -6 15 -68 43 -80 36 -6 -4 -8 -3 -5 3 4 5 -6
16 -21 24 -15 8 -29 16 -32 19 -10 10 -65 41 -82 47 -10 3 -18 10 -18 15 0 5
-4 6 -10 3 -5 -3 -10 -2 -10 3 0 5 -8 12 -17 15 -23 7 -94 49 -111 65 -13 11
-26 15 -38 10 -3 -2 -10 5 -15 15 -6 9 -17 17 -24 17 -8 0 -15 4 -15 10 0 5
-3 9 -7 8 -5 -1 -26 9 -48 23 -22 13 -46 22 -53 21 -8 -2 -11 1 -8 6 3 5 -9
17 -27 26 -46 24 -71 40 -79 51 -4 6 -8 6 -8 2 0 -5 -13 1 -30 13 -16 12 -30
18 -30 13 0 -4 -5 0 -11 10 -6 9 -14 15 -20 12 -5 -4 -12 1 -15 9 -3 9 -15 16
-25 16 -10 0 -19 4 -19 9 0 5 -16 15 -35 22 -19 7 -35 17 -35 21 0 4 -6 8 -13
8 -7 0 -23 9 -35 20 -12 12 -22 18 -22 14 0 -3 -7 -1 -15 6 -8 7 -15 9 -15 6
0 -4 -10 2 -22 14 -12 11 -28 20 -35 20 -7 0 -13 5 -13 11 0 5 -4 8 -9 4 -6
-3 -13 1 -18 9 -4 8 -12 15 -18 16 -5 0 -26 11 -45 22 -19 12 -38 21 -42 20
-5 -1 -8 3 -8 8 0 6 -5 10 -10 10 -6 0 -28 11 -49 24 -21 14 -42 22 -45 19 -3
-4 -6 -1 -6 5 0 7 -7 12 -16 12 -8 0 -12 5 -9 10 3 6 -2 10 -13 10 -10 0 -27
8 -38 18 -11 9 -26 18 -34 20 -8 2 -16 8 -18 13 -2 5 -12 9 -23 9 -10 0 -19 5
-19 10 0 6 -7 10 -15 10 -8 0 -15 5 -15 11 0 5 -4 7 -10 4 -5 -3 -10 -1 -10 5
0 6 -4 9 -9 6 -5 -3 -15 1 -22 10 -7 9 -30 23 -51 31 -21 8 -36 18 -34 22 3 4
-5 8 -17 8 -12 1 -23 7 -25 13 -2 5 -10 10 -18 10 -8 0 -14 5 -14 11 0 5 -4 7
-10 4 -5 -3 -10 -1 -10 4 0 6 -9 11 -21 11 -11 0 -17 5 -14 10 3 6 0 10 -8 10
-8 0 -31 11 -51 25 -21 14 -43 27 -49 28 -6 1 -18 8 -25 15 -8 7 -18 10 -23 7
-5 -4 -9 1 -9 9 0 9 -3 15 -7 14 -8 -2 -143 70 -153 82 -3 3 -26 17 -52 30
-27 14 -48 28 -48 32 0 5 -9 8 -20 8 -11 0 -20 4 -20 9 0 5 -13 14 -30 21 -16
7 -30 17 -30 22 0 5 -4 7 -9 4 -5 -3 -14 1 -21 9 -7 8 -19 15 -26 15 -8 0 -14
4 -14 8 0 5 -16 14 -35 22 -19 8 -35 17 -35 21 0 4 -18 15 -40 25 -22 10 -40
22 -40 27 0 4 -4 5 -10 2 -5 -3 -10 -2 -10 4 0 5 -16 15 -35 22 -19 7 -35 16
-35 20 0 4 -20 18 -45 30 -25 12 -45 27 -45 31 0 5 -4 7 -9 3 -5 -3 -15 0 -23
7 -24 23 -75 48 -82 40 -4 -4 -6 0 -4 8 1 8 -4 15 -12 15 -8 0 -19 6 -23 13
-5 7 -12 10 -17 7 -4 -3 -11 2 -14 11 -3 8 -10 12 -16 9 -5 -3 -10 -1 -10 4 0
6 -7 11 -15 11 -8 0 -15 4 -15 8 0 4 -12 13 -27 20 -38 16 -107 55 -113 64 -3
3 -12 8 -19 10 -8 2 -23 11 -33 21 -10 9 -25 17 -33 17 -8 0 -15 4 -15 9 0 5
-8 11 -17 14 -17 6 -63 32 -138 78 -16 11 -42 24 -57 30 -16 6 -25 16 -21 22
3 5 1 7 -4 4 -6 -4 -16 -1 -22 7 -7 8 -23 17 -36 20 -14 4 -25 11 -25 16 0 5
-9 7 -20 5 -11 -2 -19 1 -17 8 1 7 -4 11 -10 10 -7 -2 -13 2 -13 7 0 6 -7 10
-15 10 -8 0 -15 5 -15 10 0 5 -3 9 -7 8 -14 -3 -63 25 -63 35 0 6 -3 7 -7 4
-3 -4 -15 0 -25 10 -10 9 -18 13 -18 9 0 -4 -15 4 -32 17 -18 13 -48 30 -65
37 -18 7 -33 16 -33 21 0 5 -8 9 -18 9 -10 0 -28 9 -40 20 -12 11 -26 20 -31
20 -13 0 -84 41 -93 55 -4 5 -8 6 -8 1 0 -5 -6 -3 -13 3 -8 6 -17 8 -20 4 -4
-3 -7 -1 -7 5 0 7 -7 12 -15 12 -8 0 -15 4 -15 9 0 8 -37 24 -52 22 -5 -1 -8
4 -8 10 0 6 -6 9 -12 7 -7 -3 -21 5 -31 16 -10 12 -15 14 -11 6 5 -8 -4 -5
-20 8 -16 12 -34 22 -41 22 -7 0 -18 7 -25 15 -6 8 -15 14 -18 13 -4 -1 -17 3
-29 10 -13 7 -23 9 -23 5 0 -4 -4 -3 -8 2 -15 21 -56 50 -48 35 4 -9 2 -8 -7
3 -8 9 -19 17 -26 17 -6 0 -11 5 -11 11 0 5 -4 8 -9 4 -5 -3 -16 2 -24 10 -9
8 -20 15 -26 15 -6 0 -11 4 -11 9 0 5 -11 12 -25 15 -14 4 -24 10 -21 15 3 4
-1 8 -9 8 -8 0 -12 -4 -9 -8z"/>
<path d="M20787 34424 c-15 -8 -31 -12 -36 -10 -5 3 -12 -1 -15 -10 -4 -9 -9
-14 -13 -11 -3 4 -12 2 -19 -4 -8 -6 -21 -9 -29 -5 -9 3 -13 2 -10 -4 3 -5 -8
-16 -25 -25 -16 -8 -30 -12 -30 -8 0 5 -4 3 -8 -2 -8 -12 -53 -41 -67 -44 -5
-1 -14 -9 -18 -17 -4 -8 -15 -14 -22 -14 -8 0 -15 -5 -15 -10 0 -6 -8 -14 -17
-17 -22 -8 -68 -55 -65 -66 1 -5 -2 -6 -7 -2 -9 5 -48 -11 -61 -26 -3 -3 -26
-16 -52 -28 -27 -13 -48 -28 -48 -34 0 -5 -3 -7 -6 -4 -4 4 -19 -2 -34 -13
-16 -11 -33 -20 -39 -20 -6 0 -11 -5 -11 -12 0 -6 -3 -9 -6 -5 -4 3 -13 -1
-21 -9 -8 -8 -19 -12 -24 -9 -5 4 -9 -2 -10 -12 0 -11 -3 -13 -6 -5 -4 9 -10
7 -23 -8 -10 -12 -22 -22 -27 -22 -16 -1 -38 -12 -51 -25 -7 -7 -20 -13 -28
-13 -8 0 -14 -4 -14 -10 0 -5 -11 -12 -25 -16 -14 -3 -25 -10 -25 -15 0 -5 -9
-9 -20 -9 -11 0 -20 -5 -20 -11 0 -5 -4 -8 -9 -5 -5 3 -12 -1 -15 -10 -4 -9
-9 -14 -12 -11 -4 3 -13 -1 -21 -9 -8 -8 -18 -12 -23 -9 -4 3 -11 -2 -14 -11
-3 -8 -10 -12 -16 -9 -6 3 -13 -1 -16 -10 -4 -9 -12 -14 -19 -11 -8 3 -16 -2
-19 -10 -3 -9 -10 -12 -16 -9 -5 3 -10 1 -10 -5 0 -6 -4 -8 -10 -5 -5 3 -10 1
-10 -4 0 -6 -7 -11 -15 -11 -8 0 -15 -4 -15 -9 0 -5 -11 -12 -25 -15 -14 -4
-25 -11 -25 -16 0 -6 -6 -10 -14 -10 -7 0 -25 -9 -38 -20 -14 -10 -28 -17 -30
-14 -3 2 -11 -2 -18 -11 -7 -8 -19 -15 -26 -15 -8 0 -14 -5 -14 -11 0 -5 -4
-8 -9 -4 -6 3 -14 -3 -20 -12 -6 -10 -11 -14 -11 -10 0 4 -17 -3 -37 -17 -20
-14 -40 -23 -45 -20 -4 3 -11 -2 -14 -10 -3 -9 -10 -13 -15 -10 -5 3 -9 0 -9
-6 0 -6 -4 -9 -9 -6 -5 3 -12 -1 -15 -10 -3 -8 -10 -12 -16 -9 -5 3 -10 1 -10
-6 0 -7 -3 -10 -6 -7 -3 4 -22 -5 -41 -18 -19 -13 -40 -21 -46 -17 -6 3 -7 1
-3 -5 4 -7 3 -12 -3 -12 -5 0 -17 -7 -25 -16 -9 -8 -16 -11 -16 -4 0 7 -5 6
-14 -2 -8 -7 -12 -16 -10 -20 3 -4 -5 -5 -16 -3 -11 2 -25 -4 -33 -16 -8 -10
-17 -16 -20 -12 -4 3 -7 0 -7 -7 0 -7 -3 -10 -7 -7 -3 4 -21 -4 -39 -18 -18
-14 -40 -25 -48 -25 -9 0 -16 -4 -16 -9 0 -5 -10 -13 -22 -17 -13 -4 -26 -11
-29 -16 -3 -5 -15 -10 -27 -11 -11 0 -19 -4 -16 -8 4 -6 -26 -22 -35 -19 -2 1
-7 -2 -10 -7 -11 -17 -119 -72 -126 -65 -5 4 -5 2 -2 -4 4 -7 -3 -14 -18 -18
-14 -4 -25 -11 -25 -17 0 -6 -4 -7 -10 -4 -5 3 -10 2 -10 -3 0 -4 -16 -14 -35
-22 -19 -8 -35 -17 -35 -22 0 -4 -5 -8 -11 -8 -6 0 -23 -9 -39 -20 -15 -11
-30 -17 -34 -13 -3 3 -6 2 -6 -4 0 -6 -22 -21 -50 -34 -27 -13 -50 -27 -50
-32 0 -4 -4 -5 -10 -2 -5 3 -10 1 -10 -5 0 -6 -4 -9 -9 -6 -5 3 -12 -1 -15
-10 -3 -8 -10 -12 -16 -9 -5 3 -10 1 -10 -4 0 -6 -9 -11 -21 -11 -11 0 -17 -4
-14 -10 3 -5 -3 -10 -13 -10 -11 0 -25 -7 -32 -15 -7 -8 -19 -15 -26 -15 -8 0
-14 -4 -14 -9 0 -7 -28 -19 -47 -19 -3 0 -9 -5 -12 -10 -3 -5 -23 -18 -43 -29
-21 -11 -34 -23 -31 -27 4 -4 0 -4 -10 0 -10 3 -17 1 -17 -5 0 -6 -7 -11 -15
-11 -8 0 -15 -5 -15 -11 0 -5 -4 -8 -9 -5 -5 3 -14 -1 -21 -9 -7 -8 -16 -12
-21 -9 -5 3 -12 -2 -15 -10 -3 -9 -9 -14 -14 -11 -4 2 -16 -5 -28 -15 -12 -11
-28 -20 -37 -20 -8 0 -15 -5 -15 -11 0 -6 -7 -8 -16 -5 -8 3 -12 2 -9 -4 3 -6
1 -10 -4 -10 -22 0 -26 -2 -34 -16 -5 -8 -12 -12 -18 -9 -5 4 -9 1 -9 -4 0 -6
-7 -11 -16 -11 -9 0 -12 -5 -8 -12 5 -7 2 -9 -8 -5 -9 3 -23 -2 -33 -13 -10
-11 -21 -17 -25 -15 -4 3 -13 -2 -20 -10 -7 -8 -18 -15 -25 -15 -6 0 -22 -9
-35 -20 -12 -11 -27 -17 -31 -14 -5 3 -9 -3 -9 -13 0 -15 -2 -16 -10 -3 -8 12
-10 12 -16 -3 -3 -9 -12 -17 -20 -17 -8 0 -14 -5 -14 -12 0 -6 -3 -8 -7 -5 -3
4 -12 2 -20 -4 -7 -6 -13 -8 -13 -3 0 4 -6 1 -12 -8 -7 -8 -38 -29 -68 -45
-81 -43 -104 -57 -110 -64 -3 -4 -15 -9 -28 -13 -12 -4 -20 -12 -17 -17 3 -5
0 -6 -8 -3 -8 3 -18 0 -22 -5 -3 -6 -11 -8 -17 -5 -7 4 -8 2 -4 -4 4 -7 -3
-14 -19 -18 -14 -3 -25 -9 -25 -13 0 -4 -16 -13 -35 -21 -19 -7 -31 -18 -28
-23 3 -5 0 -8 -8 -5 -8 3 -20 -1 -27 -9 -8 -7 -18 -11 -23 -8 -5 4 -9 2 -9 -4
0 -6 -11 -13 -25 -17 -14 -3 -22 -10 -19 -15 3 -5 -2 -9 -10 -9 -9 0 -16 -5
-16 -11 0 -5 -5 -7 -10 -4 -6 3 -17 -1 -26 -9 -8 -9 -22 -16 -30 -16 -8 0 -14
-3 -14 -7 0 -5 -18 -17 -40 -27 -22 -11 -40 -23 -40 -28 0 -4 -3 -7 -7 -6 -12
2 -47 -14 -55 -26 -3 -5 -14 -11 -23 -12 -9 -1 -23 -8 -31 -14 -19 -17 -95
-59 -116 -67 -10 -3 -18 -9 -18 -14 0 -5 -6 -8 -12 -6 -7 1 -12 -3 -11 -8 1
-6 -7 -12 -18 -12 -10 -1 -26 -9 -35 -18 -9 -9 -23 -14 -31 -11 -8 3 -12 2 -9
-3 3 -5 -7 -15 -22 -23 -15 -7 -62 -34 -105 -58 -43 -25 -87 -50 -98 -56 -10
-6 -16 -14 -11 -19 4 -5 2 -5 -4 -2 -13 8 -42 -6 -92 -41 -17 -13 -36 -20 -42
-17 -5 3 -10 1 -10 -5 0 -5 -16 -18 -35 -27 -19 -9 -35 -20 -35 -24 0 -4 -12
-10 -27 -14 -15 -3 -30 -10 -33 -15 -3 -5 -12 -10 -19 -12 -8 -2 -23 -11 -33
-21 -10 -10 -24 -15 -30 -11 -6 4 -8 3 -5 -3 6 -9 -7 -16 -36 -21 -4 -1 -15
-8 -23 -17 -9 -8 -22 -15 -30 -15 -8 0 -12 -4 -9 -10 3 -5 -3 -10 -14 -10 -12
0 -21 -5 -21 -11 0 -5 -4 -7 -10 -4 -5 3 -10 2 -10 -3 0 -6 -11 -13 -25 -16
-14 -4 -25 -10 -25 -15 0 -5 -16 -15 -35 -21 -19 -6 -33 -16 -30 -21 4 -5 -1
-6 -9 -3 -9 3 -16 1 -16 -5 0 -6 -7 -11 -15 -11 -8 0 -15 -5 -15 -11 0 -5 -5
-7 -10 -4 -6 3 -13 -1 -16 -10 -6 -13 -8 -14 -15 -3 -6 9 -9 10 -9 1 0 -12
-52 -45 -66 -42 -4 0 -10 -5 -15 -13 -5 -7 -12 -13 -16 -13 -12 -1 -57 -27
-64 -37 -3 -5 -15 -10 -27 -11 -11 0 -19 -4 -17 -8 3 -3 -13 -14 -35 -24 -22
-10 -40 -22 -40 -28 0 -5 -7 -7 -15 -3 -8 3 -15 1 -15 -4 0 -5 -9 -12 -20 -15
-12 -4 -17 -11 -14 -18 4 -7 4 -9 -1 -5 -10 9 -125 -50 -125 -65 0 -6 -3 -7
-6 -4 -4 4 -19 -2 -34 -13 -16 -11 -32 -20 -38 -20 -5 0 -19 -9 -32 -20 -13
-11 -32 -20 -42 -20 -11 0 -17 -4 -14 -9 5 -7 -20 -19 -41 -19 -3 0 -9 -4 -12
-9 -11 -14 -70 -53 -81 -53 -6 0 -18 -7 -27 -15 -8 -8 -18 -13 -23 -10 -4 3
-11 -2 -14 -11 -3 -8 -10 -12 -16 -9 -5 3 -10 1 -10 -4 0 -6 -6 -11 -14 -11
-7 0 -19 -7 -26 -15 -7 -8 -16 -13 -20 -10 -5 3 -11 1 -15 -5 -4 -6 -11 -7
-17 -4 -6 4 -9 3 -6 -2 9 -13 -16 -34 -40 -34 -5 0 -19 -9 -32 -20 -12 -11
-27 -17 -31 -14 -5 3 -9 0 -9 -6 0 -6 -4 -8 -10 -5 -5 3 -10 1 -10 -4 0 -6 -7
-11 -15 -11 -8 0 -15 -4 -15 -10 0 -5 -7 -10 -15 -10 -8 0 -15 -5 -15 -11 0
-5 -4 -8 -9 -5 -5 3 -14 -1 -21 -9 -7 -8 -16 -12 -21 -9 -5 3 -9 0 -9 -5 0 -6
-5 -11 -11 -11 -7 0 -18 -8 -26 -17 -8 -10 -11 -11 -7 -3 5 8 -4 5 -20 -8 -16
-12 -35 -22 -43 -22 -7 0 -16 -7 -19 -15 -4 -8 -10 -13 -14 -10 -4 3 -19 -4
-33 -15 -14 -11 -32 -20 -41 -20 -8 0 -19 -7 -24 -16 -5 -8 -16 -16 -26 -18
-10 -1 -21 -7 -24 -12 -7 -11 -46 -28 -48 -22 -1 2 -12 -8 -24 -22 -12 -14
-19 -19 -15 -12 3 6 2 12 -3 12 -6 0 -12 -7 -16 -15 -3 -8 -12 -15 -21 -15 -8
0 -15 -4 -15 -10 0 -5 -6 -10 -14 -10 -8 0 -22 -7 -30 -16 -9 -8 -16 -13 -16
-9 0 3 -17 -6 -37 -20 -21 -14 -43 -25 -49 -25 -7 0 -15 -8 -18 -17 -6 -15 -8
-15 -16 -3 -8 13 -10 12 -10 -2 0 -16 -11 -23 -32 -19 -5 0 -8 -4 -8 -10 0 -5
-4 -8 -9 -4 -6 3 -13 0 -18 -7 -4 -7 -25 -22 -45 -32 -21 -11 -38 -23 -38 -27
0 -5 -7 -6 -15 -3 -8 4 -17 -1 -21 -10 -3 -9 -10 -13 -15 -10 -5 3 -9 0 -9 -7
0 -7 -3 -10 -6 -6 -4 3 -26 -7 -50 -24 -24 -17 -49 -27 -56 -23 -7 4 -8 3 -4
-4 4 -7 2 -12 -4 -12 -6 0 -18 -7 -27 -15 -8 -8 -19 -13 -24 -10 -5 4 -9 2 -9
-4 0 -5 -10 -13 -22 -17 -12 -3 -28 -13 -36 -20 -7 -8 -17 -12 -22 -9 -4 3
-11 -2 -14 -11 -3 -8 -10 -12 -16 -9 -5 3 -10 1 -10 -4 0 -6 -7 -11 -15 -11
-8 0 -15 -5 -15 -11 0 -5 -4 -8 -9 -5 -5 3 -14 -1 -21 -9 -7 -8 -16 -13 -20
-10 -4 3 -11 -2 -14 -11 -3 -8 -10 -12 -16 -9 -5 3 -10 3 -10 -2 0 -4 -15 -14
-32 -22 -18 -8 -36 -18 -39 -23 -3 -5 -14 -10 -23 -12 -10 -1 -22 -9 -27 -17
-5 -8 -9 -10 -9 -6 0 5 -7 1 -16 -7 -8 -9 -19 -14 -24 -11 -4 3 -11 -2 -14
-11 -3 -8 -10 -13 -15 -10 -5 3 -11 0 -14 -8 -3 -7 -18 -16 -32 -20 -15 -4
-34 -14 -42 -22 -9 -8 -22 -13 -29 -10 -8 3 -13 0 -11 -7 1 -7 -4 -11 -10 -9
-7 1 -13 -2 -13 -8 0 -5 -6 -10 -14 -10 -8 0 -16 -3 -18 -7 -4 -11 -80 -49
-91 -45 -5 1 -6 -2 -2 -7 3 -6 -6 -13 -20 -17 -14 -3 -25 -10 -25 -16 0 -5 -4
-6 -10 -3 -5 3 -10 1 -10 -5 0 -6 -4 -9 -9 -6 -5 4 -11 2 -13 -3 -1 -5 -9 -11
-17 -13 -8 -2 -23 -11 -33 -21 -10 -10 -23 -15 -28 -12 -6 4 -10 -1 -10 -10 0
-9 -4 -14 -9 -10 -5 3 -13 0 -16 -6 -4 -5 -13 -8 -21 -5 -9 3 -11 0 -7 -11 4
-9 2 -14 -3 -11 -12 8 -57 -10 -50 -20 2 -4 -5 -9 -16 -9 -12 -1 -25 -8 -29
-15 -5 -7 -9 -9 -9 -4 0 6 -7 1 -15 -10 -8 -10 -15 -15 -15 -11 0 5 -13 -1
-29 -12 -16 -12 -34 -21 -40 -21 -6 0 -11 -4 -11 -10 0 -5 -9 -10 -20 -10 -11
0 -20 -4 -20 -10 0 -5 -11 -12 -24 -16 -14 -3 -27 -12 -30 -20 -3 -8 -15 -14
-26 -14 -11 0 -20 -3 -20 -8 0 -4 -17 -15 -37 -24 -42 -19 -95 -50 -103 -59
-3 -4 -15 -9 -27 -13 -13 -4 -23 -12 -23 -17 0 -6 -4 -7 -10 -4 -5 3 -10 1
-10 -4 0 -6 -7 -11 -15 -11 -9 0 -18 -6 -21 -14 -3 -8 -11 -13 -19 -10 -7 3
-19 -1 -26 -9 -18 -18 -62 -42 -71 -39 -5 1 -8 -2 -8 -7 0 -5 -13 -14 -30 -20
-16 -5 -30 -15 -30 -20 0 -6 -3 -10 -7 -9 -11 3 -76 -32 -85 -46 -4 -6 -8 -7
-8 -2 0 6 -7 1 -15 -10 -11 -14 -15 -16 -15 -4 0 12 -3 11 -11 -2 -5 -10 -17
-18 -24 -18 -8 0 -15 -5 -15 -11 0 -5 -4 -8 -9 -5 -5 4 -11 3 -13 -1 -4 -9
-48 -36 -98 -61 -19 -9 -37 -20 -40 -23 -3 -3 -25 -16 -50 -30 -25 -13 -47
-26 -50 -29 -3 -3 -18 -11 -33 -18 -17 -7 -25 -17 -21 -24 4 -7 3 -8 -4 -4
-11 7 -121 -49 -134 -68 -5 -7 -8 -7 -8 -1 0 6 -7 1 -15 -9 -8 -11 -15 -17
-15 -13 0 4 -18 -4 -40 -18 -22 -14 -44 -25 -50 -25 -5 0 -10 -5 -10 -11 0 -5
-5 -7 -10 -4 -6 3 -13 -1 -16 -9 -3 -9 -10 -14 -14 -11 -4 3 -13 -2 -20 -10
-7 -8 -16 -13 -20 -10 -4 2 -16 -4 -27 -14 -11 -10 -29 -22 -41 -25 -12 -4
-22 -12 -22 -17 0 -6 -4 -8 -9 -4 -5 3 -15 0 -23 -7 -7 -7 -35 -24 -61 -37
-25 -13 -44 -27 -41 -32 3 -5 -1 -6 -9 -3 -8 3 -18 0 -22 -5 -3 -6 -11 -9 -16
-5 -5 3 -8 0 -7 -7 2 -7 -1 -14 -7 -15 -22 -3 -75 -29 -75 -36 0 -4 -7 -8 -15
-8 -8 0 -15 -4 -15 -9 0 -5 -11 -12 -25 -15 -14 -4 -25 -11 -25 -17 0 -6 -4
-7 -10 -4 -5 3 -10 1 -10 -4 0 -6 -10 -11 -22 -11 -12 0 -18 -3 -15 -6 4 -4
-17 -19 -45 -33 -79 -40 -88 -45 -88 -54 0 -4 -4 -5 -10 -2 -5 3 -10 1 -10 -5
0 -6 -4 -8 -10 -5 -5 3 -10 1 -10 -4 0 -6 -6 -11 -14 -11 -8 0 -21 -7 -29 -15
-8 -8 -21 -16 -28 -17 -7 -2 -22 -11 -33 -20 -10 -10 -23 -15 -28 -12 -5 3
-17 -3 -27 -15 -10 -11 -21 -18 -25 -14 -3 3 -6 2 -6 -3 0 -6 -16 -16 -35 -24
-19 -8 -35 -18 -35 -22 0 -5 -4 -7 -9 -4 -4 3 -16 -3 -26 -14 -10 -11 -24 -20
-32 -20 -7 0 -13 -5 -13 -11 0 -5 -4 -8 -9 -5 -5 3 -14 -1 -21 -9 -7 -8 -16
-12 -21 -9 -5 3 -9 0 -9 -6 0 -6 -13 -16 -30 -21 -16 -6 -27 -15 -24 -20 3 -5
-2 -6 -10 -3 -9 3 -16 2 -16 -4 0 -5 -13 -15 -30 -22 -16 -7 -30 -16 -30 -20
0 -7 -35 -20 -45 -17 -2 1 -11 -7 -19 -18 -8 -11 -20 -20 -28 -20 -11 0 -13
-71 -14 -380 0 -210 -3 -386 -7 -391 -3 -6 -4 -14 0 -18 9 -9 10 -177 0 -183
-4 -2 -4 -10 0 -16 10 -16 9 -49 -2 -66 -5 -8 -4 -12 1 -8 12 7 10 -95 -1
-113 -5 -7 -4 -11 1 -8 5 4 9 -28 9 -73 0 -46 -4 -79 -10 -79 -7 0 -7 -3 0 -8
13 -9 15 -113 2 -105 -6 4 -7 1 -2 -7 12 -19 14 -80 2 -73 -6 4 -7 1 -2 -7 7
-11 11 -196 5 -225 -1 -5 -1 -14 0 -20 7 -37 5 -95 -4 -95 -7 0 -7 -3 -1 -8
15 -10 18 -55 3 -46 -7 5 -8 3 -3 -5 10 -16 11 -94 1 -109 -4 -7 -2 -12 4 -12
8 0 7 -6 -1 -21 -6 -12 -7 -19 -2 -16 11 7 10 -54 -1 -72 -4 -6 -2 -11 3 -11
14 0 10 -62 -4 -72 -7 -5 -7 -8 0 -8 11 0 11 -72 0 -89 -3 -6 -1 -11 5 -11 6
0 8 -5 5 -11 -11 -16 -13 -59 -4 -53 5 3 9 0 9 -5 0 -6 -5 -11 -12 -11 -9 0
-9 -3 0 -12 16 -16 15 -31 0 -22 -9 5 -9 2 1 -9 11 -14 11 -17 0 -17 -11 0
-11 -2 1 -10 11 -7 11 -10 2 -10 -7 0 -10 -5 -6 -12 13 -20 13 -68 0 -61 -6 4
-5 -1 3 -10 7 -9 9 -17 4 -17 -5 0 -9 -9 -9 -19 0 -11 3 -18 6 -16 3 2 5 -16
5 -40 0 -24 -3 -41 -6 -39 -4 2 -3 -12 1 -31 5 -24 4 -35 -4 -35 -6 0 -4 -5 4
-10 10 -6 11 -10 3 -10 -9 0 -10 -7 -3 -26 13 -33 13 -37 -2 -28 -9 5 -9 2 1
-9 10 -13 10 -17 1 -17 -10 0 -10 -3 0 -15 10 -12 10 -15 -1 -15 -9 0 -10 -3
-4 -8 11 -8 15 -62 4 -62 -4 0 -4 -13 1 -30 5 -17 5 -30 0 -30 -5 0 -6 -10 -1
-22 4 -13 5 -35 0 -50 -4 -16 -4 -28 2 -28 5 0 9 -5 9 -11 0 -5 -6 -7 -12 -3
-9 5 -9 2 1 -9 11 -14 11 -17 0 -17 -9 0 -10 -3 -2 -11 7 -7 8 -21 3 -39 -4
-15 -4 -34 1 -41 13 -20 11 -31 -3 -23 -9 5 -9 2 1 -9 9 -12 10 -17 2 -17 -9
0 -9 -5 -1 -20 8 -14 8 -20 0 -20 -8 0 -8 -6 0 -20 6 -11 7 -20 2 -20 -5 0 -6
-22 -2 -50 4 -27 4 -50 1 -50 -3 0 -6 -20 -6 -44 0 -24 3 -42 8 -39 4 2 7 -1
7 -6 0 -6 -5 -11 -10 -11 -7 0 -7 -6 0 -20 6 -11 7 -20 2 -20 -5 0 -9 -7 -9
-15 0 -8 4 -12 9 -9 4 3 8 0 8 -5 0 -6 -5 -11 -11 -11 -5 0 -7 -6 -3 -12 10
-16 11 -108 2 -108 -5 0 -8 -5 -8 -11 0 -5 3 -8 8 -6 11 7 9 -77 -2 -85 -6 -4
-5 -12 3 -21 9 -12 9 -16 -1 -19 -11 -4 -11 -8 0 -20 10 -13 10 -17 0 -20 -10
-4 -10 -8 1 -21 9 -11 10 -17 2 -17 -6 0 -11 -5 -11 -11 0 -5 3 -8 8 -6 4 3 7
-15 7 -39 0 -24 -3 -44 -6 -44 -3 0 -3 -22 1 -50 4 -27 3 -50 -2 -50 -5 0 -4
-9 2 -20 6 -12 7 -20 1 -20 -6 0 -6 -11 -1 -30 6 -20 5 -30 -2 -30 -7 0 -7 -4
0 -13 7 -8 7 -18 2 -27 -6 -9 -5 -17 3 -22 9 -6 9 -8 1 -8 -8 0 -9 -11 -4 -35
5 -21 4 -35 -1 -35 -6 0 -5 -9 1 -20 6 -11 7 -20 1 -20 -5 0 -6 -14 -1 -34 4
-19 4 -40 -1 -47 -4 -7 -4 -20 1 -29 5 -9 5 -22 0 -30 -4 -7 -4 -24 1 -37 5
-12 5 -23 0 -23 -10 0 -6 -43 5 -61 4 -8 3 -9 -4 -5 -7 4 -12 1 -12 -9 0 -9 4
-14 9 -10 6 3 6 -6 1 -25 -6 -21 -5 -30 3 -30 8 0 8 -3 2 -8 -11 -8 -14 -72
-3 -72 4 0 3 -12 -2 -26 -7 -18 -7 -23 1 -18 8 4 8 1 1 -13 -6 -11 -7 -25 -2
-33 5 -8 5 -21 -1 -31 -6 -12 -5 -20 1 -24 6 -4 7 -11 4 -17 -8 -12 -12 -128
-4 -123 3 2 5 -7 5 -20 0 -13 -3 -21 -7 -18 -5 2 -8 -3 -8 -12 0 -9 4 -14 8
-11 4 2 8 -4 8 -14 0 -10 -3 -17 -6 -15 -3 2 -5 -23 -5 -55 0 -37 3 -56 10
-52 5 3 4 -1 -2 -9 -10 -12 -10 -18 0 -28 9 -11 9 -15 0 -18 -9 -3 -9 -12 -3
-29 6 -14 6 -23 1 -20 -5 3 -8 -5 -8 -19 0 -14 3 -22 8 -19 5 3 9 0 9 -5 0 -6
-4 -11 -10 -11 -5 0 -10 -5 -10 -11 0 -5 6 -7 13 -3 10 6 10 4 0 -7 -15 -15
-18 -33 -5 -25 5 3 9 -1 9 -9 0 -8 -4 -12 -8 -9 -10 6 -5 -38 6 -56 5 -8 5
-15 -1 -17 -11 -4 -10 -185 1 -203 5 -8 4 -11 -2 -7 -6 4 -10 -4 -10 -18 0
-14 3 -22 8 -19 5 3 9 0 9 -5 0 -6 -4 -11 -9 -11 -10 0 -7 -43 5 -61 4 -8 3
-9 -4 -5 -15 9 -15 1 -1 -26 6 -11 7 -18 2 -15 -4 3 -8 -32 -8 -78 0 -46 3
-81 8 -78 4 2 7 -1 7 -6 0 -6 -3 -11 -8 -11 -4 0 -7 -16 -8 -35 0 -19 3 -32 8
-29 4 3 8 0 8 -5 0 -6 -4 -11 -8 -11 -10 0 -9 -51 1 -67 4 -6 3 -15 -3 -18 -8
-5 -8 -11 0 -20 8 -9 8 -15 0 -20 -7 -4 -7 -13 1 -27 6 -11 7 -18 2 -15 -10 6
-10 -124 0 -140 4 -6 4 -13 0 -16 -12 -12 -11 -67 1 -60 6 3 6 0 -1 -8 -16
-16 -17 -33 -1 -23 7 5 8 3 2 -7 -11 -19 -12 -189 -1 -213 6 -13 6 -16 -2 -12
-6 4 -11 0 -11 -9 0 -10 5 -13 12 -9 8 5 8 1 -1 -10 -13 -15 -13 -19 0 -27 8
-5 9 -9 3 -9 -12 0 -11 -80 2 -101 4 -7 3 -10 -4 -5 -14 8 -11 -66 3 -76 6 -5
6 -8 -2 -8 -13 0 -12 -18 1 -39 6 -9 5 -12 -1 -8 -6 4 -10 -4 -10 -18 0 -15 4
-22 11 -18 6 3 6 0 -2 -8 -15 -16 -16 -33 0 -23 7 5 8 3 2 -7 -12 -20 -13
-139 -1 -132 6 4 7 1 2 -8 -13 -20 -14 -73 -1 -81 8 -5 8 -8 0 -8 -11 0 -13
-58 -1 -76 3 -6 3 -14 -1 -18 -12 -13 -10 -1029 2 -1045 7 -9 7 -12 1 -9 -7 4
-10 -92 -11 -282 0 -184 3 -287 9 -283 6 4 7 1 1 -8 -14 -22 -14 -240 0 -232
8 5 8 3 0 -8 -8 -10 -11 -585 -12 -2019 -1 -1970 0 -2055 28 -2010 3 4 12 10
20 12 8 2 21 9 29 16 7 7 20 11 27 8 8 -3 14 -1 14 4 0 9 39 26 53 22 5 -1 6
2 2 8 -3 5 1 10 9 10 9 0 16 5 16 12 0 6 3 8 6 5 7 -7 84 31 95 46 3 5 8 8 10
8 9 -2 69 24 69 30 0 3 20 14 45 25 25 10 45 22 45 27 0 4 5 5 10 2 6 -3 13 1
16 10 6 13 8 14 15 3 7 -10 9 -9 9 5 0 10 4 16 9 12 5 -3 15 1 23 8 7 7 18 14
23 15 28 6 45 14 45 23 0 6 5 7 10 4 6 -3 13 0 16 9 3 9 12 12 21 9 12 -5 14
-3 8 7 -6 10 -4 12 8 7 10 -3 17 -3 17 1 0 4 19 16 43 27 23 11 46 25 50 33 5
7 12 10 18 7 5 -4 9 -1 9 4 0 6 3 10 8 9 14 -3 62 22 62 32 0 6 4 9 9 5 5 -3
17 3 27 12 10 10 18 17 18 15 2 -8 56 19 56 28 0 5 3 9 7 9 19 -3 33 2 47 17
9 9 22 17 29 18 7 1 23 9 36 18 13 10 28 15 33 12 4 -3 8 0 8 5 0 6 6 11 14
11 8 0 17 7 20 16 3 8 10 13 15 9 5 -3 12 -1 16 5 4 6 11 8 16 5 5 -4 9 -2 9
4 0 5 18 17 40 27 22 10 40 21 40 26 0 4 3 8 8 7 15 -2 52 14 52 22 0 5 7 9
15 9 8 0 15 5 15 11 0 5 5 7 10 4 6 -3 10 -1 10 5 0 6 4 9 9 6 5 -3 19 2 32
12 26 19 50 32 110 64 21 11 42 24 45 29 3 5 9 7 14 4 4 -3 13 2 20 10 7 8 16
12 21 9 5 -3 9 -1 9 4 0 6 29 24 65 41 36 18 65 36 65 41 0 6 3 9 8 9 22 -4
42 2 37 11 -3 6 3 10 13 10 11 0 25 7 32 15 7 8 21 15 32 15 10 0 16 4 13 10
-5 9 15 15 38 11 4 0 7 3 7 8 0 5 9 13 20 16 11 4 18 10 16 14 -3 4 1 8 9 9 8
1 22 3 30 4 8 1 15 8 15 16 0 12 3 12 17 1 10 -7 15 -10 11 -5 -8 10 14 36 25
29 4 -2 7 1 7 7 0 6 4 9 9 6 5 -3 14 1 21 9 7 8 19 15 26 15 8 0 14 4 14 8 0
7 42 27 63 30 5 0 15 9 23 19 7 10 14 14 14 10 0 -5 13 1 29 12 31 22 81 45
94 43 4 -1 7 4 7 12 0 8 5 18 12 22 7 5 8 3 3 -5 -5 -9 -1 -9 16 1 13 7 26 16
29 19 7 8 44 22 53 21 4 -1 7 5 7 13 0 9 6 12 15 9 8 -4 15 -1 15 5 0 6 7 11
15 11 8 0 24 10 36 23 12 12 19 15 15 7 -4 -8 -1 -7 7 3 9 10 19 18 24 18 16
-1 43 10 43 19 0 4 8 10 18 14 9 3 24 10 32 15 8 5 22 12 30 15 8 4 38 20 65
37 28 16 58 33 68 36 9 3 17 10 17 15 0 5 4 7 9 4 5 -4 11 -1 13 4 2 6 13 12
25 13 12 0 20 4 18 7 -2 3 16 16 41 29 24 13 41 27 39 31 -3 5 3 6 13 4 9 -3
27 4 40 16 12 11 22 18 22 15 0 -4 12 2 28 13 15 11 37 23 50 26 12 4 22 12
22 17 0 5 6 9 14 9 7 0 19 7 26 15 7 8 16 12 21 9 5 -3 9 0 9 6 0 6 4 9 9 6 5
-3 14 1 21 9 7 8 16 12 21 9 5 -3 9 0 9 5 0 6 7 11 15 11 8 0 15 5 15 10 0 6
7 10 15 10 8 0 15 4 15 10 0 5 3 9 8 8 4 -2 44 19 89 45 45 26 87 47 93 47 5
0 10 8 10 18 0 12 2 14 8 4 7 -9 13 -8 27 8 10 11 21 17 25 15 4 -3 13 2 20
10 7 8 19 15 26 15 8 0 14 5 14 11 0 5 5 7 10 4 6 -3 10 -1 10 5 0 6 5 8 10 5
6 -3 10 -1 10 4 0 6 7 11 15 11 7 0 19 8 24 18 6 9 11 13 11 9 0 -9 93 43 98
55 2 5 8 6 13 2 5 -3 9 0 9 7 0 7 3 10 6 6 4 -3 21 5 40 19 18 14 37 23 43 20
5 -3 12 1 15 10 3 8 10 13 15 10 5 -3 12 1 15 10 3 8 10 13 14 10 5 -3 19 4
30 15 12 11 22 17 22 14 0 -4 14 3 30 15 17 12 30 18 30 14 0 -4 7 1 15 12 8
10 15 15 15 10 0 -6 7 -1 15 10 10 13 14 15 15 5 0 -10 5 -8 18 6 14 16 50 36
60 33 1 0 12 9 24 19 11 11 25 18 30 15 4 -3 8 0 8 5 0 6 7 11 16 11 9 0 12 5
8 12 -5 7 -3 8 6 3 8 -5 18 -1 27 11 8 10 15 18 16 16 4 -7 43 12 75 36 17 13
32 20 32 16 0 -5 5 -1 11 9 6 9 14 15 20 12 5 -4 9 -1 9 4 0 6 3 10 8 10 20
-3 32 2 26 13 -4 6 -3 8 4 4 6 -3 17 1 25 9 9 8 20 15 26 15 6 0 11 5 11 12 0
6 3 8 6 5 4 -4 19 1 33 11 14 10 38 24 53 31 15 8 25 18 22 23 -3 5 -2 8 3 7
22 -4 41 3 59 19 11 10 32 22 47 26 15 3 25 11 22 16 -3 6 3 10 14 10 11 0 23
4 26 10 3 5 21 17 40 26 19 9 35 21 35 26 0 5 5 6 10 3 6 -3 10 -1 10 5 0 6 4
8 10 5 5 -3 21 6 34 20 17 18 26 22 29 13 4 -8 6 -7 6 4 1 10 4 17 9 16 12 -3
62 24 62 34 0 4 9 8 20 8 11 0 20 5 20 10 0 6 7 10 15 10 8 0 15 4 15 9 0 5
11 12 25 15 14 4 25 11 25 17 0 6 5 7 10 4 6 -3 10 -1 10 5 0 7 7 9 16 6 8 -3
12 -2 9 4 -3 5 4 14 15 20 11 6 20 8 20 5 0 -3 9 4 20 15 11 11 27 20 35 20 8
0 15 5 15 10 0 6 5 10 11 10 17 0 59 36 51 44 -3 4 1 4 10 1 10 -4 22 2 32 17
9 13 19 22 21 21 13 -7 35 -2 30 6 -3 6 4 8 15 6 11 -2 20 1 20 6 0 6 6 9 12
7 7 -3 19 2 27 9 7 8 19 12 26 9 8 -3 16 2 19 10 3 9 10 13 15 10 5 -4 15 -1
23 6 7 7 22 15 33 16 11 2 25 8 31 13 7 5 11 126 12 357 0 192 2 353 3 358 1
5 1 11 0 14 -2 7 -3 302 0 315 1 6 1 13 0 17 -2 14 0 706 2 766 1 34 -2 62 -6
62 -5 0 -5 5 -1 12 4 6 6 107 5 225 -1 166 1 213 11 214 7 0 4 4 -7 9 -11 5
-15 9 -10 9 8 1 12 281 5 301 -1 3 -1 10 0 15 7 34 3 216 -5 219 -5 3 -5 5 2
5 7 1 10 8 6 18 -5 12 -3 14 8 8 8 -5 5 1 -5 13 -11 12 -15 22 -10 22 5 0 9
99 8 230 0 127 3 233 8 236 5 3 5 11 0 17 -14 19 -13 59 1 50 9 -5 9 -3 1 8
-15 20 -16 61 -1 52 7 -4 6 1 -2 11 -13 15 -13 19 0 27 9 5 9 9 2 9 -15 0 -14
60 1 79 8 11 8 13 -1 7 -7 -4 -13 -3 -13 3 0 5 5 13 10 16 8 5 8 11 0 20 -12
14 -10 52 4 74 6 9 5 12 -1 8 -14 -9 -12 105 2 115 7 5 6 8 -1 8 -6 0 -11 16
-11 35 0 19 5 35 11 35 7 0 6 3 -1 8 -14 9 -13 68 1 91 7 10 5 12 -3 6 -15 -9
-11 36 4 47 6 5 6 8 -1 8 -13 0 -13 88 0 109 6 9 5 12 -1 8 -13 -8 -11 61 1
82 6 9 5 12 -2 7 -12 -7 -10 53 2 72 3 6 2 13 -4 17 -10 6 -7 46 6 66 4 8 3 9
-4 5 -12 -7 -10 53 3 75 5 8 4 10 -3 5 -14 -9 -15 3 -2 24 5 9 5 19 -2 27 -7
9 -7 18 3 30 10 11 10 14 1 9 -9 -5 -11 -1 -8 16 3 13 5 25 6 28 2 3 1 10 0
15 -7 28 -5 95 3 95 6 0 6 5 0 13 -10 13 -10 73 0 83 3 4 2 15 -4 26 -8 14 -7
24 3 36 11 13 11 15 -2 7 -13 -8 -13 -7 -1 8 7 10 9 17 3 17 -11 0 -11 18 1
37 4 6 3 14 -2 18 -13 7 -10 45 4 45 5 0 4 4 -3 9 -8 4 -14 12 -14 16 0 4 6
12 14 16 8 6 9 12 3 17 -12 8 -13 27 -3 38 4 4 3 13 -3 20 -6 7 -7 19 -3 26
11 17 11 49 1 71 -5 11 -3 17 5 17 9 0 9 3 -2 10 -13 9 -13 10 0 10 9 0 11 3
5 8 -15 10 -19 46 -5 37 9 -6 9 -2 1 14 -9 16 -9 21 1 21 8 0 9 3 3 8 -12 8
-13 51 -2 69 4 6 3 14 -2 17 -6 4 -6 18 0 38 5 20 5 36 0 41 -6 6 -6 19 0 34
6 17 6 22 -2 17 -8 -4 -8 0 0 15 7 11 8 21 2 21 -12 0 -9 33 4 42 6 5 5 8 -2
8 -9 0 -10 7 -3 25 5 13 5 27 1 30 -5 3 -5 21 -1 40 4 19 5 37 1 39 -8 5 -6
71 4 85 3 6 2 11 -3 11 -5 0 -9 7 -9 15 0 8 5 15 11 15 6 0 6 4 -2 12 -7 7 -8
17 -1 30 7 13 6 18 -3 18 -8 0 -9 3 -1 11 6 6 8 23 3 45 -5 19 -4 32 1 28 5
-3 9 0 9 5 0 6 -3 11 -7 11 -5 0 -8 11 -8 25 0 14 2 25 5 25 3 0 6 9 6 20 0
11 -4 20 -9 20 -5 0 -4 6 2 14 8 10 9 16 1 21 -6 4 -7 12 0 24 6 12 5 22 -2
29 -9 9 -9 12 2 12 11 0 11 3 2 12 -7 7 -8 17 -2 29 7 11 7 20 0 24 -7 4 -7
13 0 26 8 14 7 19 -1 19 -8 0 -7 5 2 17 12 14 12 15 1 9 -11 -7 -12 -4 -3 12
8 15 8 23 0 28 -8 4 -7 9 2 16 10 7 11 11 2 14 -8 4 -9 14 -3 35 6 20 5 27 -2
23 -6 -4 -8 -3 -5 3 11 18 16 63 7 63 -6 0 -5 12 1 28 6 15 9 29 7 32 -1 3 10
11 25 18 15 7 27 17 27 22 0 5 7 7 15 4 9 -4 15 0 15 10 0 10 6 13 15 10 8 -4
15 -1 15 6 0 7 7 10 16 6 8 -3 12 -2 9 4 -6 9 8 14 28 11 4 0 7 4 7 10 0 5 5
7 10 4 6 -4 9 -1 8 6 -2 7 2 14 7 14 25 4 65 26 65 36 0 7 3 9 6 6 4 -4 19 2
34 13 15 11 30 17 34 13 3 -3 6 -1 6 6 0 7 14 17 30 22 17 6 30 15 30 21 0 5
5 6 10 3 6 -3 13 1 16 9 3 9 10 14 14 11 5 -3 16 2 24 11 9 8 16 13 16 9 0 -3
13 3 29 14 16 12 32 21 35 21 3 0 15 8 26 18 11 9 24 17 28 17 4 1 23 11 42
23 19 12 47 28 63 35 15 6 27 15 27 19 0 5 7 8 15 8 8 0 15 5 15 11 0 6 6 9
14 6 8 -3 17 1 20 9 3 9 10 12 16 9 5 -3 10 -2 10 3 0 6 14 15 30 21 17 5 30
15 30 21 0 6 5 8 10 5 6 -3 13 1 16 9 3 9 10 14 14 11 5 -3 15 1 23 9 8 8 17
12 21 9 3 -4 6 -1 6 6 0 7 5 9 10 6 6 -3 13 1 16 9 3 9 10 14 14 11 5 -3 15 2
23 10 9 8 20 15 26 15 5 0 15 8 20 18 7 11 11 12 11 4 0 -10 4 -10 16 2 8 9
20 16 25 16 6 0 7 5 3 12 -5 7 -3 8 6 3 7 -4 15 -3 19 3 3 6 13 12 21 14 14 3
21 7 55 36 8 7 20 10 25 7 6 -3 10 -3 10 2 0 4 36 28 79 53 44 24 77 49 74 54
-4 5 -1 6 6 2 7 -5 21 0 32 10 10 9 19 14 19 11 0 -4 16 5 36 18 20 14 41 25
46 25 5 0 6 5 2 12 -4 6 -3 8 4 4 6 -3 18 1 26 10 9 8 16 12 16 8 0 -3 7 -1
15 6 8 7 15 9 15 4 0 -5 5 -1 11 9 5 9 15 17 20 17 6 0 24 9 40 21 16 11 34
17 40 13 7 -4 10 -3 6 2 -5 9 144 100 168 104 6 1 14 8 18 16 5 8 12 12 18 9
5 -4 12 1 15 9 3 9 10 13 15 10 5 -3 9 0 9 6 0 6 5 8 10 5 6 -3 10 -2 10 3 0
9 34 23 45 19 2 -1 11 7 19 18 9 11 16 16 16 10 0 -6 3 -6 8 0 8 13 107 71
108 64 0 -2 8 4 18 14 10 9 21 15 25 13 4 -3 13 3 21 14 7 10 19 16 25 14 7
-3 15 2 19 11 3 9 10 13 16 10 5 -3 10 -1 10 4 0 6 5 11 12 11 6 0 26 11 43
25 18 13 36 21 40 17 3 -4 11 1 16 11 6 9 17 17 24 17 8 0 15 5 15 11 0 5 4 8
9 4 6 -3 14 3 20 12 5 10 11 17 13 15 7 -7 58 18 58 28 0 6 4 9 9 5 5 -3 16 1
24 9 8 8 17 12 21 9 3 -4 6 -1 6 6 0 7 5 9 10 6 6 -3 10 -1 10 4 0 6 7 11 16
11 9 0 12 5 8 12 -5 8 -2 9 9 5 10 -4 20 0 26 11 6 9 11 13 11 9 0 -5 13 1 29
12 16 12 34 21 39 21 6 0 12 3 14 8 2 4 24 18 50 31 26 13 45 28 42 32 -3 5 3
6 12 2 13 -5 15 -3 9 7 -6 9 -4 11 5 5 8 -5 18 -2 26 9 7 10 16 18 21 18 21 3
43 11 43 17 0 3 15 13 33 20 17 8 38 21 45 28 8 7 18 11 23 8 5 -4 9 -1 9 4 0
6 7 11 16 11 8 0 12 5 9 10 -3 6 -1 11 4 11 30 4 81 30 81 41 0 5 5 6 10 3 6
-3 10 -1 10 5 0 6 5 8 10 5 6 -3 10 -1 10 5 0 6 5 8 10 5 6 -3 13 1 16 9 3 9
10 13 15 10 5 -3 12 2 15 10 3 9 10 14 14 11 5 -3 16 2 24 11 9 8 16 12 16 7
0 -4 7 0 14 10 8 10 16 18 18 18 14 -2 48 13 48 21 0 6 7 7 16 4 8 -3 12 -2 9
4 -3 6 1 10 9 10 9 0 16 5 16 11 0 5 5 7 10 4 6 -3 13 1 16 9 3 9 10 13 15 10
5 -3 9 0 9 6 0 6 5 8 10 5 6 -3 10 -1 10 5 0 6 4 9 8 6 5 -3 18 3 29 13 11 10
29 22 41 25 12 4 22 12 22 18 0 6 3 8 7 5 3 -4 12 -2 20 4 7 6 13 9 13 6 0 -3
12 5 27 19 15 14 33 22 40 20 7 -3 13 1 13 10 0 8 4 13 9 9 5 -3 15 1 23 8 7
7 29 21 48 30 46 23 89 48 119 69 13 9 28 15 33 12 4 -3 8 -1 8 4 0 5 18 17
40 28 22 10 40 23 40 27 0 5 5 5 10 2 6 -3 10 -1 10 4 0 6 5 11 11 11 6 0 23
9 39 20 15 11 30 17 34 13 3 -3 6 -1 6 4 0 6 21 21 48 34 26 12 49 26 52 29 7
9 43 24 53 22 4 -1 7 2 7 8 0 5 7 10 15 10 8 0 15 3 15 8 0 4 23 18 50 31 28
14 50 29 50 34 0 4 5 5 10 2 6 -3 10 -1 10 5 0 6 5 8 10 5 6 -3 10 -1 10 5 0
6 4 9 9 6 5 -3 14 1 21 9 7 8 19 15 26 15 8 0 14 4 14 9 0 8 34 21 46 18 3 -1
10 6 15 16 6 9 14 15 20 12 5 -4 9 -1 9 4 0 6 7 11 16 11 8 0 22 6 29 13 26
22 41 32 55 35 8 2 22 10 31 18 9 8 18 12 21 9 3 -3 11 1 18 10 7 8 19 15 26
15 8 0 14 5 14 11 0 5 5 7 10 4 6 -3 10 -2 10 4 0 5 16 15 35 21 19 6 35 16
35 21 0 6 4 8 9 4 6 -3 14 3 20 12 5 10 11 17 13 16 8 -6 48 10 48 19 0 5 5 8
12 6 6 -2 20 4 30 14 10 10 23 16 28 13 6 -4 10 -1 10 5 0 6 5 8 10 5 6 -3 10
-2 10 4 0 5 26 22 58 38 31 15 59 31 62 34 3 3 24 14 48 24 23 11 42 22 42 27
0 4 8 8 19 8 10 0 24 7 31 15 7 8 16 12 21 9 5 -3 9 -1 9 4 0 11 38 25 59 22
7 -1 10 3 6 9 -5 10 7 15 28 12 4 0 7 3 7 8 0 5 8 11 18 13 15 4 17 18 16 104
0 54 3 104 8 111 5 6 5 13 1 16 -10 6 -10 248 0 264 4 5 4 13 0 17 -9 9 -10
137 -1 143 5 2 5 10 1 16 -10 17 -11 67 -1 73 5 3 5 10 1 17 -9 15 -10 458 0
464 4 2 4 9 1 15 -10 15 -11 209 -2 215 5 2 5 9 1 15 -9 16 -10 139 -1 145 5
2 5 9 1 16 -9 15 -10 197 0 197 4 0 4 8 -1 18 -4 9 -7 35 -5 57 4 47 4 36 0
153 -1 50 2 92 6 92 5 0 5 5 1 12 -10 16 -11 249 -1 255 4 2 4 9 0 15 -9 16
-10 139 -1 145 5 2 5 10 1 16 -10 17 -11 67 -1 73 5 3 5 10 1 17 -9 15 -10
458 0 464 4 2 4 9 1 15 -10 15 -11 209 -2 215 5 2 5 9 1 15 -9 16 -10 139 -1
145 5 2 5 9 1 16 -9 15 -10 197 0 197 4 0 4 8 -1 18 -4 9 -7 35 -5 57 4 47 4
36 0 153 -1 50 2 92 6 92 5 0 5 5 1 12 -10 16 -11 249 -1 255 4 2 4 9 0 15 -9
16 -10 139 -1 145 5 2 5 10 1 16 -10 17 -11 67 -1 73 5 3 5 10 1 17 -9 15 -10
458 0 464 4 2 4 9 1 15 -10 15 -11 209 -2 215 5 2 5 9 1 15 -9 16 -10 139 -1
145 5 2 5 9 1 16 -9 15 -10 197 0 197 4 0 4 8 -1 18 -4 9 -7 35 -5 57 4 47 4
36 0 153 -1 50 2 92 6 92 5 0 5 5 1 12 -10 16 -11 249 -1 255 4 2 4 9 0 15 -9
16 -10 139 -1 145 5 2 5 10 1 16 -10 17 -11 67 -1 73 5 3 5 10 1 17 -10 16
-10 320 0 334 4 6 4 14 -1 17 -5 3 -8 19 -6 36 4 34 -6 37 -49 14z"/>
<path d="M21370 25543 c0 -4 -47 -7 -105 -6 -59 1 -105 -3 -105 -8 0 -5 -6 -9
-14 -9 -8 0 -22 -7 -30 -16 -9 -8 -16 -13 -16 -9 0 4 -7 -1 -16 -9 -8 -9 -20
-13 -26 -10 -6 4 -8 2 -5 -3 8 -12 -20 -27 -42 -24 -7 1 -10 -2 -7 -7 3 -5
-12 -17 -34 -27 -22 -10 -40 -22 -40 -27 0 -4 -6 -8 -13 -8 -7 0 -22 -8 -33
-17 -11 -10 -26 -19 -34 -21 -8 -2 -17 -7 -20 -11 -3 -4 -22 -15 -42 -24 -21
-10 -38 -22 -38 -28 0 -6 -5 -7 -10 -4 -6 3 -13 -1 -16 -9 -3 -9 -10 -14 -14
-11 -4 3 -19 -5 -34 -16 -14 -11 -26 -17 -26 -12 0 4 -4 3 -8 -2 -8 -11 -64
-49 -73 -50 -3 0 -13 -8 -23 -17 -10 -10 -24 -18 -32 -18 -8 0 -14 -6 -14 -12
0 -9 -4 -8 -10 2 -8 13 -10 12 -10 -2 0 -10 -7 -18 -15 -18 -8 0 -15 -5 -15
-11 0 -5 -4 -7 -10 -4 -5 3 -10 2 -10 -3 0 -5 -8 -12 -17 -15 -22 -7 -72 -37
-91 -54 -7 -7 -20 -13 -28 -13 -8 0 -14 -4 -14 -9 0 -10 -39 -27 -53 -23 -5 1
-6 -1 -3 -6 3 -5 -6 -14 -19 -20 -13 -6 -43 -24 -67 -39 -24 -15 -46 -26 -50
-25 -5 1 -8 -3 -8 -8 0 -9 -49 -34 -59 -30 -2 1 -8 -5 -13 -14 -5 -9 -14 -16
-20 -16 -6 0 -26 -11 -44 -25 -18 -14 -36 -25 -40 -25 -4 0 -16 -8 -27 -17
-15 -13 -19 -14 -13 -3 4 9 2 8 -7 -2 -8 -10 -19 -18 -26 -18 -6 0 -11 -4 -11
-10 0 -5 -3 -9 -7 -8 -13 2 -43 -14 -39 -21 3 -4 -4 -7 -14 -8 -18 -2 -29 -8
-65 -41 -8 -7 -16 -12 -17 -12 -9 3 -37 -13 -34 -19 3 -4 -5 -8 -16 -8 -12 -1
-25 -8 -29 -15 -5 -7 -9 -8 -9 -3 0 6 -5 2 -11 -8 -6 -9 -14 -15 -20 -12 -5 4
-9 1 -9 -4 0 -6 -7 -11 -15 -11 -8 0 -15 -5 -15 -11 0 -5 -5 -7 -10 -4 -6 3
-13 -1 -16 -9 -3 -9 -10 -13 -15 -10 -5 3 -9 0 -9 -5 0 -6 -9 -11 -19 -11 -10
0 -21 -7 -25 -15 -3 -8 -12 -15 -21 -15 -8 0 -15 -5 -15 -11 0 -5 -4 -8 -9 -5
-5 3 -12 -1 -15 -10 -4 -9 -9 -14 -13 -11 -3 3 -25 -7 -48 -23 -23 -16 -45
-26 -49 -23 -3 4 -6 1 -6 -6 0 -7 -13 -17 -30 -22 -16 -6 -30 -15 -30 -21 0
-5 -4 -7 -9 -4 -5 4 -11 2 -13 -3 -1 -5 -10 -11 -18 -13 -8 -2 -23 -12 -33
-23 -10 -11 -16 -14 -12 -5 5 12 4 12 -7 -1 -7 -9 -23 -19 -36 -23 -13 -5 -20
-12 -16 -19 4 -7 4 -9 -1 -5 -8 8 -74 -27 -87 -46 -5 -7 -8 -7 -8 -1 0 6 -7 2
-14 -8 -8 -10 -17 -18 -20 -19 -17 0 -46 -11 -46 -17 0 -4 -16 -15 -35 -24
-19 -9 -35 -22 -35 -27 0 -6 -4 -9 -9 -5 -5 3 -16 -1 -24 -9 -8 -8 -17 -13
-19 -10 -3 2 -16 -6 -30 -19 -14 -13 -30 -21 -36 -19 -7 2 -12 -1 -12 -6 0 -5
-16 -17 -35 -26 -19 -9 -35 -21 -35 -27 0 -6 -4 -8 -9 -4 -5 3 -17 -3 -27 -12
-10 -10 -20 -18 -23 -18 -3 0 -5 -3 -4 -7 2 -4 -4 -5 -12 -2 -8 4 -15 1 -15
-6 0 -6 -4 -8 -10 -5 -5 3 -10 2 -10 -3 0 -5 -13 -15 -30 -22 -16 -7 -27 -16
-24 -21 3 -5 2 -9 -3 -8 -16 4 -63 -13 -58 -21 4 -6 -16 -16 -40 -19 -12 -1
-33 -27 -28 -33 2 -4 -3 -5 -11 -2 -10 4 -16 1 -16 -7 0 -7 -3 -10 -6 -6 -3 3
-28 -9 -54 -28 -26 -19 -51 -31 -54 -28 -3 3 -8 -2 -12 -11 -3 -9 -9 -14 -14
-11 -4 2 -16 -4 -26 -13 -10 -10 -22 -18 -26 -18 -4 1 -17 -7 -29 -17 -11 -10
-23 -16 -26 -13 -3 3 -17 -6 -31 -19 -14 -13 -29 -22 -34 -19 -4 3 -8 0 -8 -7
0 -7 -3 -10 -6 -6 -3 3 -14 -2 -25 -11 -11 -9 -22 -16 -25 -14 -2 1 -11 -3
-19 -10 -33 -29 -45 -38 -53 -38 -5 0 -15 -7 -22 -15 -7 -8 -19 -15 -26 -15
-8 0 -23 -8 -34 -17 -11 -10 -26 -18 -33 -18 -7 -1 -11 -6 -10 -13 2 -6 -4 -9
-12 -6 -8 4 -15 1 -15 -6 0 -6 -4 -9 -9 -6 -5 3 -12 -1 -15 -10 -3 -8 -10 -12
-16 -9 -5 3 -10 1 -10 -4 0 -6 -7 -11 -15 -11 -8 0 -15 -5 -15 -11 0 -5 -4 -8
-9 -4 -5 3 -17 -5 -26 -17 -8 -13 -18 -22 -20 -20 -12 6 -36 1 -31 -7 3 -5 -6
-12 -19 -15 -16 -4 -23 -11 -19 -18 4 -7 3 -8 -4 -4 -7 4 -32 -7 -56 -23 -25
-17 -49 -31 -55 -31 -6 0 -11 -4 -11 -10 0 -5 -9 -10 -21 -10 -11 0 -17 -4
-14 -10 3 -5 -1 -10 -9 -10 -8 0 -21 -7 -30 -15 -8 -9 -17 -15 -18 -15 -10 4
-37 -14 -32 -21 3 -5 2 -8 -3 -7 -14 4 -53 -13 -53 -23 0 -6 -4 -8 -8 -5 -5 3
-18 -3 -29 -14 -12 -10 -24 -16 -27 -13 -3 4 -6 1 -6 -6 0 -7 -4 -9 -10 -6 -5
3 -10 2 -10 -3 0 -5 -11 -14 -24 -20 -25 -11 -33 -52 -11 -52 5 0 4 -4 -3 -9
-17 -11 -17 -21 0 -32 7 -5 8 -9 2 -9 -6 0 -11 -7 -11 -15 0 -8 5 -15 10 -15
5 0 5 -6 -2 -13 -8 -10 -7 -17 2 -26 9 -9 9 -14 -1 -20 -17 -10 -17 -21 0 -32
7 -5 8 -9 2 -9 -13 0 -13 -62 1 -72 6 -5 6 -8 -2 -8 -12 0 -12 -24 0 -36 4 -4
2 -13 -4 -20 -7 -8 -7 -14 0 -18 7 -5 7 -16 0 -34 -13 -34 -13 -33 3 -43 7 -5
8 -9 2 -9 -12 0 -13 -38 -1 -57 4 -6 3 -15 -3 -18 -8 -5 -7 -12 2 -23 9 -10 9
-13 1 -9 -8 5 -11 0 -10 -13 1 -11 6 -20 12 -20 5 0 4 -4 -3 -9 -8 -4 -14 -12
-14 -16 0 -4 6 -12 14 -16 7 -5 8 -9 2 -9 -6 0 -11 -7 -11 -15 0 -8 5 -15 10
-15 5 0 4 -7 -4 -16 -10 -13 -10 -17 2 -25 11 -7 12 -11 1 -18 -8 -4 -14 -12
-14 -16 0 -4 6 -12 14 -16 7 -5 8 -9 2 -9 -6 0 -10 -13 -10 -30 0 -16 4 -30
10 -30 6 0 5 -4 -2 -9 -17 -11 -17 -21 0 -32 7 -5 8 -9 2 -9 -6 0 -11 -7 -11
-15 0 -8 5 -15 10 -15 5 0 5 -6 -2 -13 -8 -10 -7 -17 2 -26 9 -9 9 -14 -1 -20
-17 -10 -17 -21 0 -32 7 -5 8 -9 2 -9 -6 0 -10 -13 -10 -30 0 -16 4 -30 10
-30 6 0 5 -4 -2 -9 -8 -4 -14 -12 -14 -16 0 -4 6 -12 14 -16 7 -5 8 -9 2 -9
-6 0 -11 -7 -11 -15 0 -8 5 -15 10 -15 5 0 3 -7 -4 -17 -11 -13 -11 -17 -1
-20 6 -3 9 -10 5 -16 -12 -20 -12 -37 0 -37 8 0 8 -3 2 -8 -12 -8 -13 -27 -3
-38 4 -4 3 -13 -3 -20 -7 -8 -7 -14 0 -18 7 -5 7 -16 0 -34 -13 -34 -13 -33 3
-43 7 -5 8 -9 2 -9 -12 0 -13 -38 -1 -57 4 -6 3 -15 -3 -18 -8 -5 -7 -11 1
-22 10 -11 10 -16 0 -22 -16 -10 -16 -22 1 -32 7 -5 8 -9 2 -9 -6 0 -10 -13
-10 -30 0 -16 4 -30 10 -30 6 0 5 -4 -2 -9 -8 -4 -14 -12 -14 -16 0 -4 6 -12
14 -16 7 -5 8 -9 2 -9 -6 0 -11 -7 -11 -15 0 -8 5 -15 10 -15 5 0 5 -6 -2 -13
-8 -10 -7 -17 2 -26 9 -9 9 -14 -1 -20 -17 -10 -17 -21 0 -32 7 -5 8 -9 2 -9
-6 0 -11 -7 -11 -15 0 -8 5 -15 11 -15 6 0 5 -4 -2 -9 -8 -4 -14 -12 -14 -16
0 -4 6 -12 14 -16 7 -5 8 -9 2 -9 -6 0 -10 -13 -10 -30 0 -16 4 -30 10 -30 6
0 5 -4 -2 -9 -8 -4 -14 -12 -14 -16 0 -4 6 -12 14 -16 7 -5 8 -9 2 -9 -6 0
-11 -7 -11 -15 0 -8 5 -15 10 -15 5 0 5 -6 -2 -13 -8 -10 -7 -17 2 -26 9 -9 9
-14 -1 -20 -17 -10 -17 -21 0 -32 7 -5 8 -9 2 -9 -6 0 -10 -13 -10 -30 0 -16
4 -30 10 -30 6 0 5 -4 -2 -9 -8 -4 -14 -12 -14 -16 0 -4 6 -12 14 -16 7 -5 8
-9 2 -9 -6 0 -11 -7 -11 -15 0 -8 5 -15 10 -15 5 0 4 -7 -4 -16 -10 -13 -10
-17 2 -25 11 -7 12 -11 1 -18 -8 -4 -14 -12 -14 -16 0 -4 6 -12 14 -16 7 -5 8
-9 2 -9 -6 0 -10 -13 -10 -30 0 -16 4 -30 10 -30 6 0 5 -4 -2 -9 -8 -4 -14
-12 -14 -16 0 -4 6 -12 14 -16 7 -5 8 -9 2 -9 -6 0 -11 -7 -11 -15 0 -8 5 -15
10 -15 5 0 5 -6 -2 -13 -8 -10 -7 -17 2 -26 9 -9 9 -14 -1 -20 -17 -10 -17
-21 0 -32 7 -5 8 -9 2 -9 -6 0 -10 -13 -10 -30 0 -16 4 -30 10 -30 6 0 5 -4
-2 -9 -8 -4 -14 -12 -14 -16 0 -4 6 -12 14 -16 7 -5 8 -9 2 -9 -6 0 -11 -7
-11 -15 0 -8 5 -15 10 -15 5 0 4 -7 -4 -16 -10 -13 -10 -17 2 -25 8 -5 9 -9 3
-9 -6 0 -11 -7 -11 -15 0 -8 5 -15 11 -15 6 0 5 -4 -2 -9 -8 -4 -14 -12 -14
-16 0 -4 6 -12 14 -16 7 -5 8 -9 2 -9 -6 0 -11 -7 -11 -15 0 -8 5 -15 10 -15
5 0 4 -7 -4 -16 -10 -13 -10 -17 2 -25 11 -7 12 -11 1 -18 -8 -4 -14 -12 -14
-16 0 -4 6 -12 14 -16 7 -5 8 -9 2 -9 -6 0 -10 -13 -10 -30 0 -16 4 -30 10
-30 6 0 5 -4 -2 -9 -8 -4 -14 -12 -14 -16 0 -4 6 -12 14 -16 7 -5 8 -9 2 -9
-6 0 -11 -7 -11 -15 0 -8 5 -15 10 -15 5 0 5 -6 -2 -13 -8 -10 -7 -17 2 -26 9
-9 9 -14 -1 -20 -17 -10 -17 -21 0 -32 7 -5 8 -9 2 -9 -6 0 -10 -13 -10 -30 0
-16 4 -30 10 -30 6 0 5 -4 -2 -9 -8 -4 -14 -12 -14 -16 0 -4 6 -12 14 -16 7
-5 8 -9 2 -9 -6 0 -11 -7 -11 -15 0 -8 5 -15 10 -15 5 0 4 -7 -4 -16 -10 -13
-10 -17 2 -25 8 -5 9 -9 3 -9 -6 0 -11 -7 -11 -15 0 -8 5 -15 11 -15 6 0 5 -4
-2 -9 -17 -11 -17 -21 0 -32 10 -7 10 -9 0 -9 -9 0 -10 -5 -2 -19 7 -14 7 -22
0 -26 -8 -5 -7 -12 2 -23 9 -10 9 -13 1 -9 -8 5 -11 0 -10 -13 1 -11 6 -20 12
-20 5 0 4 -4 -3 -9 -8 -4 -14 -12 -14 -16 0 -4 6 -12 14 -16 10 -7 10 -9 0 -9
-9 0 -10 -5 -2 -19 7 -14 7 -22 0 -26 -8 -5 -7 -12 2 -23 9 -10 9 -13 1 -9 -8
5 -11 0 -10 -13 1 -11 6 -20 12 -20 5 0 4 -4 -3 -9 -17 -11 -17 -21 0 -32 7
-5 8 -9 2 -9 -6 0 -11 -7 -11 -15 0 -8 5 -15 10 -15 5 0 4 -7 -4 -16 -10 -13
-10 -17 2 -25 11 -7 12 -11 1 -18 -8 -4 -14 -12 -14 -16 0 -4 6 -12 14 -16 7
-5 8 -9 2 -9 -6 0 -10 -13 -10 -30 0 -16 4 -30 10 -30 6 0 5 -4 -2 -9 -8 -4
-14 -12 -14 -16 0 -4 6 -12 14 -16 7 -5 8 -9 2 -9 -6 0 -11 -7 -11 -15 0 -8 5
-15 10 -15 5 0 5 -6 -2 -13 -8 -10 -7 -17 2 -26 9 -9 9 -14 -1 -20 -17 -10
-17 -21 0 -32 7 -5 8 -9 2 -9 -6 0 -10 -13 -10 -30 0 -16 4 -30 10 -30 6 0 5
-4 -2 -9 -8 -4 -14 -12 -14 -16 0 -4 6 -12 14 -16 7 -5 8 -9 2 -9 -6 0 -11 -7
-11 -15 0 -8 5 -15 10 -15 5 0 3 -7 -4 -17 -11 -13 -11 -17 -1 -21 8 -2 10 -8
3 -15 -14 -18 -14 -29 1 -38 8 -6 9 -9 1 -9 -12 0 -12 -24 0 -36 4 -4 2 -13
-4 -20 -7 -8 -7 -14 0 -18 7 -5 7 -16 0 -34 -13 -34 -13 -33 3 -43 7 -5 8 -9
2 -9 -12 0 -13 -45 -1 -56 4 -4 2 -13 -4 -20 -7 -8 -7 -14 1 -19 7 -4 8 -11 1
-18 -14 -18 -14 -29 1 -38 8 -6 9 -9 1 -9 -12 0 -12 -24 0 -36 4 -4 2 -13 -4
-20 -7 -8 -7 -14 0 -18 7 -5 7 -16 0 -34 -13 -34 -13 -33 3 -43 7 -5 8 -9 2
-9 -12 0 -13 -38 -1 -57 4 -6 3 -15 -3 -18 -8 -5 -7 -12 2 -23 9 -10 9 -13 1
-9 -8 5 -11 0 -10 -13 1 -11 6 -20 12 -20 5 0 4 -4 -3 -9 -8 -4 -14 -12 -14
-16 0 -4 6 -12 14 -16 7 -5 8 -9 2 -9 -6 0 -11 -7 -11 -15 0 -8 5 -15 10 -15
5 0 4 -7 -4 -16 -10 -13 -10 -17 2 -25 11 -7 12 -11 1 -18 -8 -4 -14 -12 -14
-16 0 -4 6 -12 14 -16 7 -5 8 -9 2 -9 -14 0 -14 -60 0 -60 6 0 5 -4 -2 -9 -17
-11 -17 -21 0 -32 7 -5 8 -9 2 -9 -6 0 -11 -7 -11 -15 0 -8 5 -15 10 -15 5 0
5 -6 -2 -13 -8 -10 -7 -17 2 -26 9 -9 9 -14 -1 -20 -17 -10 -17 -21 0 -32 7
-5 8 -9 3 -9 -6 0 -12 -11 -13 -26 -1 -16 2 -23 9 -18 8 4 8 1 0 -13 -7 -14
-7 -24 2 -33 10 -10 9 -11 -3 -5 -10 6 -8 1 4 -13 10 -12 28 -24 39 -28 11 -4
30 -15 41 -25 11 -11 26 -17 33 -15 7 3 13 -2 13 -10 0 -11 6 -14 16 -10 8 3
13 2 10 -3 -6 -9 53 -38 67 -33 5 1 6 -2 3 -7 -4 -5 19 -22 49 -37 30 -16 55
-32 55 -36 0 -4 7 -8 15 -8 9 0 28 -11 43 -25 15 -14 35 -25 44 -25 10 0 18
-4 18 -9 0 -5 21 -21 48 -35 26 -14 66 -35 90 -47 23 -13 42 -27 42 -31 0 -4
7 -8 15 -8 8 0 15 -5 15 -12 0 -6 3 -8 7 -5 3 4 12 -1 20 -11 9 -10 11 -11 7
-2 -5 8 7 2 25 -13 19 -15 40 -26 48 -23 8 3 11 1 8 -4 -3 -5 7 -15 22 -22 15
-7 31 -17 35 -23 4 -5 8 -7 8 -2 0 4 9 -2 20 -13 12 -12 25 -18 30 -15 6 4 10
2 10 -3 0 -4 19 -19 43 -32 23 -12 50 -30 60 -38 9 -8 17 -12 17 -8 0 4 7 0
16 -8 8 -9 20 -14 25 -11 5 4 9 1 9 -4 0 -6 7 -11 16 -11 8 0 13 -4 9 -9 -3
-5 5 -13 17 -16 13 -4 31 -14 41 -23 9 -8 20 -12 24 -9 3 4 13 -2 20 -13 8
-11 18 -18 23 -15 4 3 11 -2 14 -11 3 -8 10 -13 15 -9 6 3 14 -3 20 -12 5 -10
12 -17 15 -16 14 4 45 -10 40 -18 -3 -5 2 -9 10 -9 8 0 35 -13 59 -30 25 -16
48 -30 52 -30 3 0 21 -11 39 -25 18 -14 38 -25 44 -25 6 0 15 -7 20 -16 5 -9
11 -15 13 -14 10 4 57 -20 61 -30 2 -6 13 -12 25 -13 12 0 19 -5 17 -9 -3 -4
2 -8 10 -8 9 0 16 -4 16 -10 0 -5 7 -10 15 -10 8 0 15 -5 15 -11 0 -5 5 -7 10
-4 6 3 13 -1 16 -9 3 -9 15 -16 25 -16 10 0 19 -4 19 -10 0 -5 6 -10 14 -10 8
0 16 -5 18 -10 2 -6 13 -12 25 -13 12 0 19 -5 17 -9 -3 -4 2 -8 10 -8 9 0 16
-4 16 -8 0 -5 19 -18 43 -31 71 -37 112 -63 115 -72 2 -5 12 -9 23 -9 10 0 19
-4 19 -10 0 -5 7 -10 15 -10 8 0 15 -4 15 -10 0 -5 6 -10 13 -10 7 0 23 -9 34
-19 12 -11 23 -17 26 -14 4 3 13 -1 21 -8 36 -32 46 -39 61 -39 8 0 15 -3 15
-8 0 -4 21 -19 48 -32 26 -14 49 -27 52 -30 16 -16 72 -51 104 -64 20 -8 36
-20 36 -25 0 -6 9 -11 20 -11 11 0 20 -5 20 -11 0 -5 5 -7 10 -4 6 3 10 2 10
-3 0 -5 13 -15 30 -22 16 -7 27 -17 23 -23 -3 -5 -1 -7 5 -3 6 3 13 2 17 -4 4
-6 11 -8 16 -5 5 4 9 2 9 -3 0 -5 14 -15 30 -22 17 -7 30 -16 30 -20 0 -4 8
-10 18 -13 19 -6 74 -38 82 -48 3 -4 24 -16 47 -28 23 -11 45 -25 48 -31 4 -6
11 -8 16 -5 5 4 9 1 9 -5 0 -6 5 -8 10 -5 6 3 10 -2 10 -11 0 -10 3 -15 6 -11
3 3 35 -12 70 -34 35 -21 67 -39 70 -39 3 0 12 -7 21 -15 8 -8 19 -13 24 -10
5 4 9 -1 9 -10 0 -9 5 -13 10 -10 6 3 10 1 10 -5 0 -6 4 -9 9 -5 5 3 16 -1 23
-9 8 -7 35 -25 61 -38 25 -14 43 -29 39 -33 -4 -5 1 -6 10 -2 10 3 19 0 22 -9
3 -9 10 -12 16 -9 5 3 10 1 10 -4 0 -6 7 -11 15 -11 8 0 15 -4 15 -10 0 -5 11
-12 25 -16 14 -3 25 -10 25 -15 0 -5 7 -9 15 -9 8 0 15 -5 15 -10 0 -6 3 -9 8
-9 17 3 35 -1 29 -7 -3 -4 16 -18 43 -31 28 -14 50 -28 50 -33 0 -4 11 -11 24
-14 14 -3 31 -12 38 -19 7 -7 30 -21 51 -30 20 -10 37 -22 37 -28 0 -6 4 -8 8
-5 5 3 18 -4 30 -14 12 -11 25 -20 30 -20 5 0 21 -9 36 -21 14 -11 26 -17 26
-12 0 4 7 0 15 -11 7 -10 18 -15 24 -11 6 3 11 2 11 -4 0 -11 60 -47 73 -43 4
1 7 -5 7 -13 0 -9 6 -12 17 -8 11 4 14 3 9 -5 -5 -8 0 -12 13 -12 12 0 21 -5
21 -11 0 -5 5 -7 10 -4 6 3 10 2 10 -4 0 -6 17 -9 38 -7 20 2 43 -1 50 -6 6
-6 12 -6 12 -2 0 8 177 11 205 4 6 -1 12 -1 15 0 18 7 100 6 100 -1 0 -6 6 -7
13 -2 18 11 80 12 95 0 6 -5 12 -6 12 -1 0 5 22 9 49 10 30 0 47 -4 44 -9 -4
-6 -1 -7 7 -2 19 12 99 15 106 4 3 -5 12 -5 22 0 17 9 49 7 60 -3 3 -3 14 2
25 11 11 10 17 13 14 6 -5 -8 5 -11 35 -9 24 1 49 -2 57 -8 11 -8 13 -8 8 0
-5 8 4 11 26 10 28 -2 118 41 137 64 6 7 40 23 53 24 5 1 15 9 22 20 8 10 19
15 26 10 8 -4 10 -3 5 4 -4 7 -1 12 6 12 7 0 33 13 57 29 25 17 49 27 54 24 6
-3 7 -1 3 5 -4 7 3 14 19 18 14 3 25 9 25 13 0 8 37 28 53 29 5 0 15 9 22 19
7 10 17 15 21 11 4 -4 18 4 31 18 12 14 23 22 23 19 0 -3 13 2 29 11 17 10 28
21 25 26 -3 4 2 5 10 2 9 -3 16 -1 16 5 0 6 7 11 15 11 8 0 15 5 15 11 0 5 4
8 8 5 5 -3 18 3 29 14 12 10 24 16 27 13 3 -4 6 -2 6 3 0 6 18 18 40 28 25 11
38 22 34 29 -4 7 -4 9 0 5 10 -8 86 30 86 44 0 5 4 7 9 4 5 -3 14 1 21 9 7 8
16 12 21 9 5 -3 9 0 9 5 0 6 7 11 15 11 9 0 18 7 21 15 4 8 9 13 14 10 4 -2
17 5 29 16 12 11 26 17 31 14 6 -3 10 1 10 10 0 9 4 14 9 10 5 -3 16 1 24 9 8
8 17 12 21 9 3 -4 6 -1 6 5 0 6 9 14 21 17 12 4 30 14 40 24 11 9 23 16 27 16
4 0 21 10 39 23 17 12 36 22 43 22 6 0 8 5 4 12 -5 8 -2 9 9 5 10 -3 17 -2 17
3 0 6 7 10 15 10 8 0 15 5 15 10 0 6 6 10 14 10 7 0 19 7 26 15 7 8 16 12 21
9 5 -3 9 0 9 5 0 6 7 11 15 11 8 0 15 4 15 10 0 5 11 12 25 16 14 3 22 11 18
17 -4 6 0 8 10 4 9 -3 18 0 21 9 3 9 10 12 16 9 5 -3 10 -1 10 4 0 6 7 11 15
11 8 0 15 5 15 11 0 5 5 7 10 4 6 -3 10 -1 10 5 0 6 5 8 10 5 6 -3 10 -1 10 5
0 6 4 9 9 6 5 -3 12 1 15 10 3 8 19 20 36 25 17 6 27 16 23 22 -4 6 -1 7 6 2
7 -4 23 3 38 16 15 13 22 17 18 9 -8 -14 32 15 46 33 3 4 15 9 27 10 11 0 19
4 16 8 -2 4 10 12 26 19 17 7 30 17 30 22 0 5 4 7 9 3 6 -3 14 3 20 12 6 10
11 14 11 10 0 -5 13 1 29 12 16 12 34 21 40 21 6 0 11 5 11 10 0 6 6 10 13 10
7 0 23 9 34 19 12 11 24 17 27 14 3 -4 6 -1 6 6 0 7 5 9 10 6 6 -3 10 -1 10 4
0 6 6 11 13 11 7 0 23 9 34 19 12 11 23 18 25 15 3 -2 16 6 30 19 14 13 30 21
36 19 7 -2 12 1 12 6 0 5 14 15 30 22 17 7 30 17 30 22 0 5 5 6 10 3 6 -3 10
-1 10 5 0 6 5 8 10 5 6 -3 10 -1 10 4 0 6 7 11 15 11 8 0 15 5 15 10 0 6 3 9
8 8 7 -2 61 30 72 42 6 8 39 20 43 17 7 -5 34 29 29 37 -3 5 0 6 7 2 7 -5 26
3 46 18 18 14 37 26 40 26 4 0 20 9 36 21 16 11 29 18 29 14 0 -3 10 3 22 15
20 19 33 24 51 21 4 0 7 6 7 15 0 8 5 12 10 9 6 -3 13 0 16 9 3 8 12 12 20 9
7 -3 17 2 20 11 3 9 15 16 25 16 10 0 19 5 19 11 0 6 7 9 15 5 8 -3 14 0 12 7
-1 7 6 12 16 12 10 0 23 8 28 18 6 9 14 15 20 12 5 -4 9 -1 9 4 0 6 6 11 14
11 8 0 16 7 20 15 3 8 13 15 23 15 9 0 28 10 41 23 14 12 22 15 18 7 -5 -9 -2
-8 7 3 8 9 19 17 26 17 6 0 11 5 11 11 0 5 5 7 10 4 6 -3 13 1 16 9 3 9 10 13
15 10 5 -3 9 0 9 6 0 6 5 8 10 5 6 -3 10 -3 10 2 0 4 18 17 40 27 22 10 37 23
33 29 -3 6 -1 7 5 3 6 -3 16 0 24 7 11 11 30 21 56 29 4 1 16 10 26 20 11 10
26 18 33 18 7 0 13 5 13 10 0 6 7 10 15 10 7 0 19 8 24 18 6 9 11 13 11 8 0
-5 8 -2 17 5 14 12 16 12 9 -1 -4 -8 1 -5 11 6 11 12 35 29 54 39 19 10 36 21
39 24 7 9 41 29 67 40 11 6 24 15 28 20 3 6 14 11 23 11 10 0 24 9 32 19 7 11
17 18 21 15 4 -2 14 2 22 10 8 8 17 12 21 9 3 -4 6 -1 6 5 0 7 6 12 13 12 7 0
23 9 34 19 12 11 24 17 27 14 3 -4 6 -1 6 5 0 7 6 12 14 12 8 0 22 7 30 16 9
8 16 13 16 9 0 -4 7 0 15 7 25 23 40 33 54 36 7 1 20 9 28 17 8 9 18 13 22 10
19 -11 26 54 25 241 0 111 -4 209 -7 218 -4 9 -3 15 1 12 4 -2 7 78 7 179 0
101 -4 181 -8 178 -5 -3 -4 4 2 15 14 27 14 35 -1 26 -7 -5 -8 -3 -3 5 10 17
12 280 2 274 -5 -3 -4 4 2 15 13 25 14 35 2 27 -6 -3 -6 6 -1 24 5 19 4 33 -3
40 -6 6 -7 11 -2 11 6 0 10 74 10 184 0 101 -3 182 -7 180 -4 -3 -5 3 -1 12 9
23 8 78 -1 92 -4 7 -4 12 1 12 4 0 8 155 8 344 0 189 -3 342 -7 340 -4 -3 -5
3 -1 12 9 23 8 78 -1 92 -4 7 -4 12 1 12 4 0 8 83 8 184 0 101 -4 182 -8 179
-5 -3 -4 4 2 15 13 25 14 35 2 27 -6 -3 -6 6 -1 24 5 19 4 33 -3 40 -6 6 -7
11 -1 11 11 0 11 771 0 788 -4 7 -4 12 1 12 4 0 8 83 8 184 0 101 -4 182 -8
179 -5 -3 -4 4 2 15 13 25 14 35 2 27 -6 -3 -7 6 -2 23 5 17 5 36 -1 47 -6 10
-7 15 -2 12 5 -3 9 76 9 178 0 101 -4 181 -8 178 -5 -3 -4 4 2 15 14 27 14 35
-1 26 -7 -5 -8 -3 -3 5 10 17 12 280 2 274 -5 -3 -4 4 2 15 13 25 14 35 2 27
-6 -3 -7 6 -2 23 5 17 5 36 -1 47 -6 10 -7 15 -2 12 5 -3 9 76 9 178 0 101 -4
181 -8 178 -5 -3 -4 4 2 15 6 11 11 23 11 27 0 3 -5 3 -11 -1 -8 -4 -8 0 0 15
9 16 9 21 -1 21 -8 1 -5 7 6 15 12 9 15 15 7 15 -9 0 -12 9 -9 25 3 14 1 25
-4 25 -5 0 -7 4 -4 8 2 4 -4 8 -14 9 -11 1 -29 11 -41 22 -13 12 -31 23 -41
27 -10 3 -18 10 -18 15 0 5 -3 8 -7 7 -9 -1 -46 13 -53 21 -9 11 -44 31 -72
42 -16 6 -25 15 -22 20 3 5 -3 9 -13 9 -10 0 -25 9 -33 19 -7 11 -18 17 -23
14 -6 -3 -16 2 -24 12 -7 11 -13 16 -13 12 0 -8 -47 20 -69 41 -7 7 -20 11
-28 8 -8 -3 -11 -1 -8 4 3 6 -1 10 -9 10 -9 0 -16 5 -16 10 0 6 -7 10 -15 10
-8 0 -15 5 -15 10 0 6 -7 10 -15 10 -9 0 -25 9 -37 20 -12 11 -28 20 -35 20
-7 0 -13 5 -13 11 0 6 -7 8 -16 5 -8 -3 -12 -2 -9 4 3 5 -6 12 -20 16 -14 3
-25 10 -25 15 0 5 -7 9 -15 9 -8 0 -15 5 -15 10 0 6 -7 10 -15 10 -8 0 -15 4
-15 8 0 4 -16 14 -35 21 -22 8 -33 17 -29 24 4 7 4 9 0 5 -5 -4 -26 4 -47 18
-21 13 -43 24 -49 24 -5 0 -10 3 -10 8 0 4 -21 18 -47 32 -27 14 -54 30 -61
37 -8 7 -17 11 -21 9 -4 -3 -14 4 -21 15 -8 10 -22 19 -32 19 -10 0 -18 4 -18
9 0 5 -22 19 -50 32 -27 12 -47 25 -45 29 2 3 -12 12 -31 19 -18 7 -34 17 -34
22 0 6 -4 7 -10 4 -5 -3 -10 -1 -10 5 0 6 -4 8 -10 5 -5 -3 -10 -2 -10 3 0 5
-12 15 -27 23 -16 7 -47 26 -70 41 -23 15 -46 28 -52 28 -6 0 -11 5 -11 11 0
5 -4 7 -10 4 -5 -3 -10 -1 -10 4 0 6 -7 11 -15 11 -8 0 -24 9 -34 19 -11 11
-22 17 -25 14 -3 -4 -6 -1 -6 5 0 7 -5 12 -11 12 -6 0 -23 8 -37 19 -52 36
-120 70 -127 63 -5 -4 -5 -1 -1 6 4 7 1 12 -7 12 -8 0 -17 7 -21 15 -3 9 -12
12 -22 8 -12 -4 -15 -3 -10 5 5 8 0 12 -14 12 -11 0 -23 7 -27 16 -3 8 -11 13
-18 10 -8 -3 -15 1 -18 7 -3 7 -23 22 -46 32 -22 11 -41 23 -41 28 0 4 -6 7
-13 7 -7 0 -23 9 -35 20 -12 12 -22 18 -22 14 0 -3 -6 -1 -13 5 -8 6 -18 7
-22 3 -5 -4 -5 -1 -1 6 4 7 1 12 -9 12 -9 0 -13 5 -10 10 3 6 -2 10 -13 10
-11 0 -31 9 -45 20 -14 11 -30 20 -36 20 -6 0 -11 5 -11 10 0 6 -7 10 -15 10
-8 0 -24 10 -36 23 -12 12 -19 16 -14 9 4 -8 -15 2 -43 21 -27 20 -53 33 -56
30 -3 -4 -6 -1 -6 5 0 7 -6 12 -14 12 -8 0 -16 4 -18 9 -1 5 -10 11 -18 13 -8
2 -17 5 -20 8 -15 15 -71 50 -80 50 -5 0 -10 5 -10 11 0 5 -4 8 -8 5 -5 -3
-20 6 -35 20 -15 14 -27 20 -27 15 0 -6 -12 1 -26 14 -15 14 -30 22 -35 19 -5
-3 -9 0 -9 6 0 6 -4 8 -10 5 -5 -3 -10 1 -10 10 0 9 -4 14 -10 10 -5 -3 -18 3
-28 13 -10 10 -24 16 -30 14 -7 -2 -12 4 -12 13 0 9 -4 14 -9 10 -5 -3 -15 0
-23 7 -7 7 -20 14 -28 16 -8 2 -19 10 -23 18 -4 8 -17 14 -28 14 -11 0 -17 5
-14 10 3 6 -3 10 -14 10 -12 0 -21 5 -21 11 0 5 -4 7 -10 4 -5 -3 -10 -1 -10
4 0 6 -7 11 -15 11 -9 0 -18 7 -21 15 -4 8 -15 15 -25 15 -10 0 -19 4 -19 8 0
5 -22 19 -50 32 -27 13 -50 27 -50 31 0 4 -16 13 -34 20 -19 7 -33 16 -30 21
3 4 -4 8 -15 8 -12 0 -21 3 -21 8 0 10 -96 63 -104 57 -3 -3 -4 -2 -1 2 7 9
-27 32 -48 33 -10 0 -20 7 -23 15 -4 8 -12 15 -20 15 -8 0 -23 9 -34 20 -11
11 -22 20 -25 21 -30 5 -44 13 -38 21 3 6 0 9 -8 6 -7 -2 -19 0 -27 6 -7 6
-18 16 -25 21 -7 6 -34 21 -60 35 -26 13 -47 28 -47 32 0 5 -9 8 -21 8 -11 0
-17 5 -14 10 3 6 -3 10 -14 10 -12 0 -21 5 -21 10 0 6 -7 10 -15 10 -8 0 -15
5 -15 12 0 6 -3 9 -6 5 -4 -3 -12 -1 -20 6 -33 29 -44 37 -53 37 -19 0 -71 37
-63 44 4 4 3 7 -3 6 -16 -3 -55 12 -55 21 0 5 -7 9 -15 9 -8 0 -15 5 -15 11 0
5 -4 8 -9 5 -5 -3 -19 5 -33 17 -16 15 -36 22 -57 22 -18 0 -35 3 -37 7 -3 5
-10 6 -15 2 -14 -8 -735 -8 -749 1 -5 3 -10 3 -10 -2z"/>
<path d="M16060 16070 c0 -3 -8 -6 -19 -7 -23 -2 -115 -44 -119 -55 -2 -4 -9
-8 -16 -8 -7 0 -21 -9 -31 -20 -9 -10 -21 -18 -25 -17 -5 1 -23 -14 -41 -33
-17 -19 -28 -28 -23 -20 4 8 -13 -6 -40 -32 -26 -27 -52 -46 -56 -43 -5 3 -12
0 -15 -6 -4 -5 -13 -8 -21 -5 -8 3 -14 1 -14 -5 0 -8 -26 -22 -60 -34 -23 -8
-47 -21 -58 -32 -8 -7 -18 -11 -23 -8 -5 4 -9 1 -9 -5 0 -6 -4 -9 -9 -5 -6 3
-14 -3 -20 -12 -6 -10 -11 -15 -11 -10 0 4 -10 1 -23 -8 -13 -8 -27 -12 -30
-8 -4 3 -7 1 -7 -5 0 -6 -16 -16 -34 -23 -19 -7 -32 -17 -29 -23 4 -5 -1 -7
-10 -3 -10 3 -17 2 -17 -4 0 -6 -4 -8 -8 -5 -5 3 -20 -5 -33 -17 -13 -12 -25
-21 -26 -19 -5 4 -68 -30 -75 -42 -4 -6 -8 -8 -8 -3 0 11 -60 -22 -60 -33 0
-6 -3 -9 -7 -9 -22 4 -41 -3 -61 -21 -12 -12 -22 -17 -22 -13 0 4 -4 4 -8 -2
-4 -5 -23 -18 -42 -27 -19 -9 -46 -24 -60 -31 -14 -8 -37 -20 -52 -27 -15 -7
-25 -18 -21 -23 3 -6 1 -7 -5 -3 -6 3 -17 0 -25 -8 -8 -8 -17 -12 -21 -9 -3 4
-13 -2 -22 -13 -8 -10 -13 -12 -9 -4 4 8 -1 6 -9 -4 -9 -11 -16 -17 -16 -14 0
4 -30 -11 -67 -32 -36 -22 -71 -36 -76 -33 -6 3 -7 2 -4 -4 6 -9 -60 -49 -75
-45 -5 1 -8 -2 -8 -8 0 -5 -7 -10 -15 -10 -8 0 -15 -5 -15 -11 0 -5 -4 -7 -10
-4 -5 3 -10 1 -10 -4 0 -6 -7 -11 -15 -11 -8 0 -15 -4 -15 -10 0 -5 -6 -7 -14
-4 -7 3 -16 -2 -20 -11 -3 -9 -10 -13 -16 -10 -5 3 -10 2 -10 -4 0 -5 -10 -13
-22 -17 -13 -4 -40 -17 -60 -30 -20 -13 -43 -25 -50 -26 -7 -2 -21 -11 -30
-21 -9 -10 -19 -18 -22 -18 -15 2 -94 -43 -90 -51 3 -4 -2 -5 -10 -2 -9 3 -16
1 -16 -6 0 -6 -5 -8 -10 -5 -6 3 -13 -1 -16 -9 -3 -9 -10 -13 -15 -10 -5 3 -9
0 -9 -6 0 -6 -4 -9 -9 -6 -5 3 -14 -1 -21 -9 -7 -8 -19 -15 -26 -15 -8 0 -14
-5 -14 -11 0 -5 -4 -7 -10 -4 -5 3 -10 1 -10 -5 0 -6 -4 -9 -9 -5 -5 3 -21 -6
-34 -19 -14 -14 -27 -22 -30 -19 -3 3 -26 -9 -50 -26 -24 -16 -47 -27 -51 -24
-3 4 -6 1 -6 -6 0 -7 -4 -9 -10 -6 -5 3 -10 1 -10 -5 0 -7 -7 -9 -16 -6 -8 3
-13 2 -10 -3 3 -4 -15 -18 -40 -30 -24 -12 -42 -27 -39 -32 4 -5 0 -6 -8 -3
-8 3 -18 0 -22 -5 -3 -6 -11 -9 -16 -6 -5 4 -9 2 -9 -4 0 -8 -82 -53 -95 -52
-3 1 -14 -8 -25 -19 -11 -11 -27 -20 -35 -20 -8 0 -15 -4 -15 -10 0 -5 -11
-12 -25 -16 -14 -3 -25 -11 -25 -16 0 -6 -7 -8 -15 -4 -8 3 -15 1 -15 -4 0 -5
-16 -17 -35 -26 -19 -9 -32 -20 -29 -25 3 -5 -2 -6 -10 -3 -9 3 -23 -2 -32
-11 -9 -9 -23 -14 -31 -11 -8 3 -11 1 -8 -4 7 -11 -69 -52 -80 -42 -5 4 -5 1
-1 -5 4 -8 1 -13 -8 -13 -9 0 -16 -5 -16 -11 0 -5 -5 -7 -10 -4 -6 3 -13 -1
-16 -10 -4 -9 -13 -14 -20 -11 -8 3 -14 1 -14 -4 0 -6 -7 -10 -15 -10 -8 0
-15 -5 -15 -11 0 -6 -7 -8 -16 -5 -8 3 -12 2 -9 -4 3 -6 1 -10 -5 -10 -7 0
-24 -9 -40 -20 -15 -11 -30 -17 -33 -13 -4 3 -9 -2 -13 -11 -3 -9 -10 -13 -15
-10 -5 3 -9 0 -9 -6 0 -6 -4 -8 -10 -5 -5 3 -10 3 -10 -2 0 -4 -10 -13 -23
-19 -61 -30 -107 -59 -107 -66 0 -5 -4 -7 -10 -3 -5 3 -18 -3 -30 -15 -11 -11
-20 -17 -20 -14 0 4 -7 1 -15 -6 -8 -7 -15 -9 -15 -4 0 4 -6 -1 -14 -12 -8
-10 -17 -16 -21 -12 -4 4 -16 -2 -28 -13 -11 -10 -27 -19 -34 -19 -7 0 -13 -4
-13 -9 0 -5 -10 -13 -22 -17 -13 -3 -35 -15 -50 -26 -16 -11 -28 -17 -28 -14
0 3 -9 -3 -20 -14 -12 -12 -25 -18 -30 -15 -6 4 -10 1 -10 -4 0 -6 -7 -11 -16
-11 -8 0 -12 -5 -9 -10 4 -6 3 -9 -2 -8 -14 4 -53 -13 -53 -23 0 -6 -4 -7 -10
-4 -5 3 -10 1 -10 -5 0 -6 -4 -8 -10 -5 -5 3 -10 2 -10 -4 0 -5 -25 -21 -55
-35 -30 -14 -55 -30 -55 -37 0 -7 -3 -9 -7 -6 -3 4 -17 0 -30 -8 -13 -9 -23
-12 -23 -8 0 5 -5 0 -11 -10 -6 -9 -14 -15 -20 -12 -5 4 -9 1 -9 -4 0 -6 -6
-11 -14 -11 -8 0 -16 -7 -20 -15 -3 -8 -15 -15 -26 -15 -11 0 -23 -6 -26 -14
-3 -8 -11 -13 -18 -10 -7 3 -19 -2 -26 -11 -7 -8 -18 -15 -24 -15 -7 0 -23
-10 -36 -22 -14 -13 -27 -22 -30 -22 -12 3 -30 -9 -25 -16 3 -5 -3 -7 -12 -6
-10 2 -23 -2 -30 -8 -37 -33 -48 -41 -53 -38 -3 1 -14 -6 -25 -15 -11 -9 -22
-16 -25 -15 -10 4 -40 -10 -40 -18 0 -8 -45 -27 -45 -19 0 2 -8 -3 -17 -11 -9
-8 -13 -19 -10 -24 3 -5 0 -6 -7 -2 -7 5 -21 0 -32 -10 -10 -9 -19 -13 -19 -8
0 5 -7 1 -14 -9 -8 -10 -16 -18 -18 -17 -10 4 -58 -21 -58 -30 0 -6 -5 -8 -10
-5 -6 3 -13 -1 -16 -9 -3 -9 -10 -13 -15 -10 -5 3 -9 0 -9 -6 0 -6 -4 -8 -10
-5 -5 3 -10 2 -10 -3 0 -6 -10 -12 -23 -16 -12 -3 -32 -15 -45 -26 -12 -11
-22 -18 -22 -15 0 3 -11 -2 -25 -11 -14 -9 -25 -14 -25 -11 0 3 -12 -5 -26
-18 -15 -14 -34 -25 -42 -25 -8 0 -20 -7 -26 -14 -6 -8 -18 -16 -26 -18 -8 -2
-23 -11 -34 -20 -10 -10 -23 -15 -28 -12 -4 3 -8 0 -8 -5 0 -6 -6 -11 -14 -11
-8 0 -21 -7 -29 -15 -8 -8 -21 -16 -28 -17 -13 -3 -21 -8 -56 -38 -10 -8 -20
-14 -23 -14 -12 4 -80 -38 -80 -49 0 -9 -3 -8 -9 1 -7 11 -9 10 -15 -3 -3 -9
-10 -13 -16 -10 -5 3 -10 1 -10 -5 0 -6 -4 -8 -10 -5 -5 3 -10 2 -10 -3 0 -8
-54 -38 -56 -30 0 1 -8 -5 -18 -14 -10 -10 -24 -18 -32 -18 -8 0 -14 -4 -14
-10 0 -5 -6 -10 -14 -10 -8 0 -21 -6 -28 -13 -15 -15 -15 -16 -45 -23 -13 -4
-23 -10 -23 -15 0 -5 -9 -9 -20 -9 -11 0 -20 -4 -20 -8 0 -5 -16 -14 -35 -22
-19 -8 -35 -17 -35 -22 0 -4 -8 -8 -18 -8 -10 0 -27 -8 -38 -18 -11 -10 -26
-16 -33 -14 -9 3 -11 0 -6 -8 6 -10 4 -12 -8 -7 -10 3 -17 2 -17 -3 0 -6 -9
-10 -20 -10 -23 0 -27 -18 -5 -26 8 -4 15 -10 15 -16 0 -5 7 -16 15 -24 8 -9
15 -12 15 -7 0 4 11 -5 25 -20 14 -15 33 -27 41 -27 8 0 12 -4 9 -10 -5 -9 1
-12 21 -9 3 0 14 -9 24 -21 10 -12 20 -21 22 -20 5 2 43 -13 48 -20 3 -4 59
-33 125 -66 66 -32 122 -62 123 -66 2 -5 12 -8 23 -8 11 0 22 -6 25 -14 3 -9
12 -12 21 -9 10 4 14 2 10 -4 -3 -5 9 -16 28 -23 19 -8 35 -16 35 -20 0 -3 16
-12 35 -19 21 -7 33 -17 29 -23 -4 -6 -2 -8 4 -4 6 3 13 2 17 -4 4 -6 11 -8
16 -5 5 4 9 2 9 -3 0 -5 12 -15 28 -22 15 -8 36 -21 46 -30 17 -13 18 -13 12
0 -7 13 -6 13 6 0 7 -8 33 -26 58 -39 25 -14 48 -29 52 -35 4 -6 8 -8 8 -4 0
4 17 -4 37 -18 20 -13 42 -23 49 -20 9 3 11 -1 7 -11 -4 -11 -2 -14 5 -9 7 4
12 2 12 -4 0 -6 4 -9 9 -6 5 3 20 -5 33 -17 14 -13 31 -21 38 -19 7 3 15 0 19
-5 12 -18 68 -52 75 -46 3 3 6 1 6 -6 0 -8 6 -11 16 -7 9 3 12 2 9 -4 -4 -6 7
-15 24 -21 17 -6 31 -15 31 -21 0 -5 5 -6 10 -3 6 3 10 1 10 -5 0 -6 5 -8 10
-5 6 3 10 3 10 -2 0 -4 18 -17 40 -27 22 -11 40 -23 40 -28 0 -5 5 -6 10 -3 6
3 10 1 10 -5 0 -6 5 -8 10 -5 6 3 10 2 10 -4 0 -9 45 -29 45 -20 0 2 11 -6 25
-18 13 -13 30 -23 37 -23 7 0 13 -5 13 -11 0 -5 5 -7 10 -4 6 3 10 2 10 -2 0
-5 26 -22 58 -38 31 -17 59 -33 60 -37 2 -5 8 -8 14 -8 5 0 22 -9 37 -19 15
-11 34 -21 41 -23 8 -2 23 -11 34 -20 11 -10 26 -18 33 -18 7 0 13 -5 13 -11
0 -5 5 -7 10 -4 6 3 13 -1 16 -9 3 -9 15 -16 25 -16 10 0 19 -5 19 -11 0 -5 5
-7 10 -4 6 3 10 1 10 -5 0 -6 5 -8 10 -5 6 3 10 2 10 -3 0 -5 21 -20 48 -33
26 -13 49 -27 50 -31 2 -5 9 -8 16 -8 7 0 22 -9 34 -20 12 -12 22 -18 22 -14
0 3 7 1 15 -6 8 -7 15 -9 15 -4 0 4 9 -2 20 -14 12 -12 28 -22 36 -22 9 0 12
-5 8 -12 -4 -7 -4 -10 1 -6 8 8 122 -51 153 -80 7 -7 18 -10 23 -6 5 3 12 -2
15 -10 3 -9 10 -13 15 -10 5 3 9 0 9 -6 0 -6 4 -9 9 -6 5 3 11 -1 15 -9 3 -8
14 -15 24 -15 10 0 27 -9 37 -20 10 -11 21 -17 26 -15 4 3 13 0 21 -7 7 -7 22
-20 32 -28 18 -13 19 -13 12 0 -4 8 2 5 13 -8 12 -14 25 -20 32 -16 8 4 9 3 5
-4 -5 -8 0 -12 13 -12 12 0 21 -5 21 -12 0 -6 3 -8 6 -5 4 4 14 -1 23 -11 9
-9 23 -17 31 -17 8 0 14 -5 13 -10 -1 -6 8 -12 19 -12 12 -1 24 -6 27 -10 3
-4 20 -15 36 -23 17 -8 33 -19 37 -25 4 -5 8 -6 8 -1 0 5 12 -1 26 -15 14 -13
29 -24 32 -24 4 0 6 -4 4 -8 -1 -5 2 -6 7 -2 10 6 42 -9 73 -33 9 -8 22 -11
29 -6 7 4 10 3 5 -4 -3 -6 3 -16 14 -22 11 -6 20 -7 20 -3 0 4 5 1 10 -7 5 -8
14 -15 20 -15 6 0 15 -7 20 -15 5 -8 10 -12 10 -7 0 4 18 -4 40 -18 22 -14 44
-25 49 -25 6 0 15 -8 20 -17 6 -10 11 -14 11 -9 0 5 9 1 20 -9 11 -10 23 -16
26 -12 3 3 14 -3 25 -14 11 -11 24 -17 29 -14 6 4 10 -1 10 -9 0 -9 9 -16 20
-16 11 0 20 -5 20 -12 0 -6 3 -8 7 -5 3 4 13 1 22 -6 28 -23 111 -68 111 -60
0 4 5 0 11 -10 6 -9 14 -15 20 -12 5 4 9 2 9 -3 0 -5 18 -17 40 -27 22 -10 40
-22 40 -27 0 -5 5 -6 10 -3 6 3 10 1 10 -4 0 -6 7 -11 15 -11 8 0 15 -5 15
-11 0 -6 6 -9 12 -7 7 3 18 0 25 -6 33 -29 41 -34 47 -29 3 4 6 1 6 -6 0 -7 5
-9 10 -6 6 3 10 2 10 -3 0 -9 50 -37 63 -34 4 1 7 -3 7 -8 0 -6 7 -10 15 -10
8 0 15 -4 15 -10 0 -5 3 -9 8 -9 19 3 33 -2 27 -11 -3 -5 0 -10 9 -10 8 0 17
-6 19 -12 4 -10 6 -10 6 0 1 8 8 6 23 -8 12 -11 28 -20 35 -20 7 0 13 -4 13
-10 0 -5 9 -10 20 -10 11 0 23 -7 26 -15 4 -8 10 -12 15 -9 5 3 9 1 9 -5 0 -5
16 -15 35 -22 19 -7 35 -17 35 -21 0 -4 7 -8 15 -8 8 0 15 -5 15 -11 0 -6 6
-9 13 -6 6 2 20 -5 30 -16 9 -11 17 -16 17 -12 0 4 8 2 18 -6 9 -8 37 -25 62
-38 25 -13 50 -29 55 -35 6 -6 19 -13 30 -14 11 -2 22 -7 25 -11 3 -4 25 -18
50 -32 25 -13 47 -27 50 -30 3 -3 33 -21 68 -39 34 -18 62 -37 62 -42 0 -5 4
-7 9 -3 5 3 12 1 16 -5 4 -6 11 -8 16 -5 5 4 9 -1 9 -9 0 -9 3 -15 8 -14 13 4
52 -13 52 -23 0 -5 5 -9 12 -9 6 0 20 -8 31 -17 15 -13 18 -14 12 -3 -4 8 3 5
17 -7 13 -13 29 -23 34 -23 6 0 16 -6 22 -12 7 -7 18 -13 25 -13 7 -1 11 -6
10 -11 -1 -6 5 -11 13 -12 8 -1 21 -3 29 -4 8 -1 12 -5 10 -9 -3 -3 10 -13 28
-20 17 -7 38 -19 45 -26 7 -7 20 -13 28 -13 8 0 14 -5 14 -11 0 -5 5 -7 10 -4
6 3 10 1 10 -4 0 -6 7 -11 15 -11 8 0 15 -5 15 -11 0 -5 5 -7 10 -4 6 3 13 -1
16 -9 3 -9 10 -14 14 -11 5 3 11 1 15 -5 4 -6 11 -8 16 -5 5 4 9 -1 9 -9 0 -9
3 -16 8 -15 15 2 52 -14 52 -22 0 -5 9 -9 21 -9 11 0 17 -4 14 -10 -3 -5 3
-10 14 -10 12 0 21 -4 21 -10 0 -5 7 -10 15 -10 8 0 15 -4 15 -10 0 -5 9 -10
20 -10 11 0 20 -4 20 -10 0 -5 6 -10 14 -10 7 0 19 -7 26 -15 7 -9 19 -14 27
-11 7 3 13 -1 13 -10 0 -8 4 -13 9 -10 5 3 14 -1 21 -9 7 -8 21 -15 31 -15 10
0 24 -9 31 -19 6 -10 17 -17 25 -14 7 3 16 -2 19 -11 3 -9 10 -13 15 -10 5 3
9 0 9 -7 0 -7 3 -9 6 -6 4 3 18 -2 32 -13 13 -11 28 -17 33 -14 5 3 9 0 9 -5
0 -6 7 -11 15 -11 8 0 15 -4 15 -10 0 -5 7 -10 15 -10 8 0 15 -5 15 -11 0 -5
4 -8 9 -5 5 4 11 1 13 -4 2 -6 12 -12 21 -14 10 -1 22 -7 25 -12 8 -11 64 -38
75 -36 4 1 7 -2 7 -8 0 -5 7 -10 15 -10 8 0 15 -4 15 -10 0 -5 9 -10 21 -10
11 0 17 -4 14 -10 -3 -5 3 -10 14 -10 12 0 21 -4 21 -10 0 -5 9 -10 20 -10 11
0 20 -4 20 -8 0 -4 34 -26 75 -47 42 -21 80 -44 86 -52 6 -7 15 -10 20 -7 5 3
12 -2 15 -10 3 -9 14 -16 23 -16 9 0 27 -9 41 -20 14 -11 33 -20 43 -20 10 0
16 -4 13 -8 -2 -4 4 -14 16 -21 16 -10 19 -10 12 1 -4 7 4 4 17 -8 13 -11 45
-31 72 -44 26 -13 47 -27 47 -32 0 -5 4 -7 9 -4 4 3 16 -3 26 -14 10 -11 23
-20 29 -20 6 0 4 5 -4 10 -9 6 -10 10 -3 10 6 0 18 -8 25 -17 7 -10 20 -19 28
-21 8 -2 18 -9 22 -15 4 -7 11 -12 15 -12 4 0 35 -16 68 -35 33 -19 65 -35 70
-35 6 -1 9 -6 7 -13 -1 -7 1 -11 5 -10 10 3 86 -33 93 -44 7 -9 83 -42 93 -40
4 1 6 -4 5 -10 -2 -7 3 -12 10 -10 6 1 12 -3 12 -9 0 -5 5 -7 10 -4 6 3 10 1
10 -4 0 -6 7 -11 15 -11 8 0 15 -4 15 -8 0 -5 16 -14 35 -22 19 -8 35 -18 35
-22 0 -5 4 -7 9 -4 5 4 11 2 13 -3 1 -5 9 -11 17 -13 8 -2 23 -11 33 -21 10
-10 22 -16 27 -13 4 3 13 -3 21 -14 7 -10 19 -16 25 -14 7 3 15 -2 19 -11 3
-10 12 -15 21 -11 8 3 15 1 15 -5 0 -5 10 -14 23 -19 29 -13 60 -33 68 -44 4
-5 12 -5 18 -2 6 4 11 0 11 -9 0 -9 4 -14 9 -11 5 3 19 -2 32 -12 13 -9 44
-28 69 -41 25 -14 47 -27 50 -30 12 -14 68 -40 74 -34 3 3 6 -1 6 -10 0 -10 3
-17 8 -16 15 2 52 -14 52 -22 0 -5 7 -9 16 -9 8 0 13 -4 10 -8 -2 -4 5 -9 16
-9 11 -1 26 -10 32 -19 7 -9 18 -14 23 -11 6 4 14 0 17 -9 4 -9 9 -14 12 -11
4 3 15 -3 27 -14 11 -10 27 -19 34 -19 7 0 13 -4 13 -9 0 -8 19 -16 43 -19 5
0 17 -10 27 -22 10 -12 20 -21 22 -21 12 1 48 -13 48 -19 0 -5 14 -13 30 -19
17 -5 30 -15 30 -21 0 -6 5 -8 10 -5 5 3 10 1 10 -5 0 -6 4 -9 8 -6 5 3 18 -4
30 -14 12 -11 28 -20 37 -20 8 0 15 -4 15 -10 0 -5 7 -10 15 -10 8 0 15 -3 15
-8 0 -7 49 -32 63 -31 5 0 17 -9 26 -20 10 -11 21 -18 25 -14 3 3 6 1 6 -6 0
-7 4 -10 9 -7 5 4 11 2 13 -3 1 -5 10 -11 18 -13 8 -2 21 -11 28 -20 7 -10 20
-18 29 -18 15 0 72 -36 84 -53 3 -5 8 -8 10 -6 9 5 49 -13 49 -23 0 -6 3 -9 6
-5 3 3 15 -3 27 -14 11 -10 29 -19 39 -19 10 0 21 -7 25 -16 3 -8 12 -13 19
-10 8 3 14 -1 14 -9 0 -8 3 -14 8 -13 12 3 82 -35 82 -44 0 -5 5 -6 10 -3 6 3
10 1 10 -5 0 -6 5 -8 10 -5 6 3 10 2 10 -3 0 -8 34 -28 53 -30 4 -1 15 -8 23
-17 9 -8 19 -13 24 -10 4 3 11 -2 14 -11 3 -8 10 -12 16 -9 5 3 10 2 10 -3 0
-5 15 -16 33 -23 17 -7 54 -28 81 -46 27 -18 54 -29 59 -26 6 3 7 1 3 -5 -4
-7 -1 -12 8 -12 9 0 16 -5 16 -11 0 -5 5 -7 10 -4 6 3 10 1 10 -5 0 -6 4 -9 9
-5 5 3 12 1 16 -5 7 -12 76 -49 87 -46 4 0 14 -8 22 -19 8 -11 18 -17 22 -13
4 4 17 -4 30 -17 13 -14 26 -26 29 -26 19 -1 65 -23 65 -32 0 -6 3 -8 6 -4 3
3 15 -3 27 -14 11 -10 29 -19 39 -19 11 0 16 -4 13 -10 -3 -5 3 -10 13 -10 11
0 25 -7 32 -15 7 -8 16 -12 21 -9 5 3 9 1 9 -4 0 -5 12 -15 28 -23 15 -8 30
-18 33 -22 3 -5 15 -10 25 -11 10 -2 18 -9 16 -15 -1 -6 1 -11 5 -10 16 2 53
-14 53 -23 0 -5 5 -6 10 -3 5 3 10 3 10 -2 0 -11 58 -43 76 -43 9 0 13 -4 10
-9 -7 -11 55 -42 68 -34 5 3 6 1 2 -5 -4 -7 -1 -12 8 -12 9 0 16 -4 16 -10 0
-5 7 -10 15 -10 8 0 15 -5 15 -11 0 -6 7 -8 16 -5 8 3 12 2 9 -4 -3 -5 6 -12
20 -16 14 -3 25 -10 25 -15 0 -5 4 -9 10 -9 5 0 39 -18 75 -40 36 -22 70 -40
76 -40 5 0 7 -5 3 -12 -4 -6 -3 -8 3 -5 6 4 22 -2 35 -13 14 -11 28 -16 32
-13 3 3 6 1 6 -6 0 -7 4 -10 9 -7 5 3 12 -1 15 -10 3 -8 10 -13 15 -10 5 4 17
-1 25 -10 9 -8 16 -12 16 -8 0 4 7 -1 15 -12 8 -10 15 -15 15 -10 0 5 8 2 18
-7 9 -8 22 -16 27 -17 6 0 26 -11 45 -22 19 -12 37 -22 40 -23 15 -5 46 -19
50 -24 5 -7 62 -33 70 -33 3 0 10 -3 15 -8 27 -21 87 -50 96 -45 5 4 9 1 9 -6
0 -7 3 -10 6 -6 3 3 18 -5 33 -19 14 -13 33 -31 42 -39 9 -8 21 -15 27 -15 7
0 12 -4 12 -10 0 -5 6 -10 14 -10 8 0 17 -7 20 -16 4 -9 9 -14 13 -11 3 4 14
-3 24 -15 11 -11 19 -18 19 -14 0 4 7 0 16 -8 8 -9 22 -16 30 -16 8 0 14 -4
14 -10 0 -5 9 -10 21 -10 11 0 18 -4 14 -9 -3 -6 3 -10 12 -10 36 -1 53 -5 53
-11 0 -8 86 -6 133 4 20 5 37 12 37 18 0 5 5 6 10 3 6 -3 10 -1 10 4 0 6 5 11
11 11 6 0 17 7 26 15 8 8 20 12 26 8 6 -4 8 0 4 10 -3 9 -2 16 2 14 5 -1 18 9
29 21 13 14 26 21 33 16 7 -4 9 -3 6 3 -4 6 15 20 43 32 28 12 50 26 50 32 0
6 5 7 10 4 6 -3 10 -1 10 5 0 6 4 9 9 5 6 -3 14 3 20 12 5 10 12 17 15 16 13
-5 35 10 29 20 -3 6 -1 7 5 3 13 -8 75 28 65 38 -4 4 0 4 9 1 9 -4 19 -1 23 4
3 6 11 9 16 6 5 -4 9 -2 9 4 0 5 20 20 45 32 25 12 45 26 45 31 0 4 3 7 8 6
12 -3 72 32 72 42 0 5 7 7 15 4 8 -4 15 -2 15 4 0 5 11 13 25 16 14 4 23 11
20 16 -3 5 3 7 15 5 11 -2 19 0 17 5 -1 4 1 7 4 6 4 0 16 7 26 17 11 9 23 14
26 10 4 -3 7 -1 7 6 0 7 5 9 10 6 6 -3 10 -2 10 3 0 5 14 15 30 22 17 7 30 17
30 22 0 5 5 6 10 3 6 -3 13 1 16 9 3 9 9 14 14 11 4 -2 16 4 27 15 12 10 23
16 26 13 3 -3 21 7 40 21 18 14 37 23 40 19 4 -3 7 -1 7 6 0 7 4 10 9 7 5 -3
12 1 15 10 3 9 12 14 19 11 6 -2 17 2 22 9 6 7 17 14 25 16 14 3 20 7 54 35 7
6 17 9 20 6 3 -4 6 -1 6 6 0 8 7 11 15 7 9 -3 15 0 15 10 0 8 4 13 9 9 5 -3
12 -1 16 5 4 6 11 7 17 4 6 -4 8 -2 4 4 -4 6 8 16 29 23 19 7 35 17 35 21 0 4
6 8 14 8 7 0 19 7 26 15 7 8 16 12 21 10 4 -3 12 3 18 12 5 10 13 18 18 17 15
-2 43 8 43 15 0 4 18 15 40 25 22 10 38 22 35 27 -4 5 1 6 9 3 9 -3 16 -1 16
6 0 6 5 8 10 5 6 -3 10 -1 10 4 0 6 7 11 15 11 8 0 15 5 15 11 0 6 6 9 14 6 8
-3 17 1 20 9 3 9 10 12 16 9 5 -3 10 -1 10 4 0 6 7 11 16 11 9 0 12 5 8 12 -4
6 -3 8 3 5 6 -4 22 3 37 14 14 11 26 17 26 13 0 -4 11 3 24 15 14 13 29 20 34
17 6 -3 12 1 16 9 3 8 14 15 25 15 10 0 22 7 25 16 3 8 10 12 16 9 5 -3 10 -1
10 4 0 6 7 11 15 11 8 0 15 5 15 12 0 6 3 8 7 5 3 -4 13 -1 22 7 9 8 23 16 31
18 15 3 22 7 58 38 13 10 31 16 39 13 11 -4 14 -2 9 5 -6 11 -2 13 19 12 3 -1
12 5 20 12 36 33 47 40 52 35 3 -3 14 3 26 13 11 11 23 17 27 15 5 -3 11 2 14
11 3 8 10 12 16 9 5 -3 10 -2 10 3 0 6 12 15 28 22 46 19 72 34 72 42 0 4 7 4
17 1 10 -4 14 -2 10 4 -4 7 7 16 28 23 21 7 32 16 28 23 -4 6 0 8 9 4 9 -3 23
2 33 13 10 11 21 17 26 15 4 -3 19 6 33 20 14 14 26 21 26 15 0 -6 9 -2 21 9
12 11 34 25 50 31 16 7 29 17 29 22 0 5 5 6 10 3 6 -3 10 -1 10 4 0 6 6 11 13
11 7 0 29 11 50 25 20 14 37 22 37 18 0 -4 5 0 11 10 6 9 14 15 18 12 5 -2 14
2 21 10 7 8 18 15 25 15 6 0 22 9 35 20 12 11 26 18 29 15 4 -2 13 5 21 15 8
10 18 16 23 13 4 -3 18 3 30 14 12 10 40 28 62 39 22 10 45 24 50 30 6 6 25
17 43 24 17 7 32 16 32 21 0 5 7 9 16 9 8 0 32 11 52 25 20 14 43 25 50 25 7
0 10 4 7 10 -5 9 8 12 32 9 3 0 10 6 15 15 5 9 16 16 23 16 8 0 15 5 15 11 0
6 6 9 12 7 7 -3 18 0 25 6 32 29 43 36 51 36 5 0 21 9 34 20 14 10 28 17 31
13 4 -3 9 2 13 11 3 9 15 16 25 16 11 0 22 7 25 15 4 8 10 13 14 10 4 -3 13 2
20 10 7 8 21 15 31 15 11 0 19 5 19 10 0 6 7 10 15 10 8 0 15 4 15 9 0 5 13
12 30 16 16 4 33 12 37 19 8 13 43 30 56 28 4 -1 7 2 7 8 0 5 17 17 38 26 20
10 41 24 45 31 4 7 17 13 27 13 10 0 22 5 25 10 4 6 11 8 16 5 5 -4 9 1 9 9 0
8 5 18 12 22 7 4 8 3 4 -4 -10 -17 0 -15 21 3 10 8 22 15 26 15 4 -1 14 5 22
12 26 23 41 33 55 36 8 2 18 9 22 15 4 7 8 8 8 4 0 -5 12 1 26 12 15 12 33 21
40 21 8 0 14 5 14 10 0 6 5 10 11 10 6 0 24 9 40 21 16 11 29 17 29 12 0 -4 4
-3 8 2 14 20 73 56 81 51 5 -3 12 1 15 10 3 8 10 13 15 10 4 -3 16 3 26 14 10
11 24 20 32 20 7 0 13 5 13 11 0 5 4 8 10 4 5 -3 18 3 30 15 11 11 21 20 23
19 10 -3 57 23 57 31 0 6 4 9 10 5 5 -3 18 3 30 15 11 11 20 17 20 14 0 -4 6
-1 13 5 8 6 17 8 20 4 4 -3 9 2 13 11 3 9 10 13 15 10 5 -3 9 0 9 6 0 7 7 9
16 6 8 -3 13 -2 10 3 -5 8 20 24 27 18 1 -1 15 8 31 21 16 12 32 22 37 22 4 0
25 11 45 25 20 14 41 22 48 18 6 -3 8 -2 4 2 -7 8 76 62 96 63 5 0 12 5 16 12
4 6 15 12 24 14 10 1 21 7 24 12 13 17 69 44 77 36 5 -4 5 -1 1 6 -4 7 -2 12
7 12 7 0 22 8 33 18 11 10 25 17 32 14 6 -2 12 1 12 6 0 11 38 28 53 24 5 -1
6 2 3 7 -7 10 22 25 43 22 7 -1 11 2 7 7 -5 8 67 49 88 50 5 0 13 7 18 16 5 9
13 14 19 11 5 -4 9 -1 9 4 0 6 7 11 16 11 8 0 12 5 9 10 -4 6 -3 10 2 9 16 -4
63 13 58 21 -5 7 32 23 48 21 4 -1 7 3 7 9 0 5 7 10 15 10 8 0 15 5 15 10 0 6
6 10 14 10 19 0 67 26 60 32 -3 4 11 11 30 18 20 6 36 15 36 20 0 4 11 11 25
14 14 4 23 11 20 16 -3 6 1 7 9 4 9 -3 16 -2 16 2 0 5 14 15 30 22 18 9 27 18
23 25 -4 8 -1 7 9 -1 13 -10 17 -10 22 3 3 8 12 15 21 15 8 0 15 5 15 11 0 5
4 8 9 5 5 -4 11 -3 13 2 5 13 95 62 102 55 3 -3 6 -1 6 5 0 7 18 20 40 29 22
10 40 21 40 26 0 4 5 5 10 2 6 -3 10 -1 10 4 0 6 7 11 15 11 8 0 15 5 15 10 0
6 7 10 15 10 8 0 15 5 15 11 0 5 4 8 10 4 5 -3 18 3 30 15 11 11 22 20 25 20
3 0 10 0 16 0 5 0 8 4 4 9 -3 6 4 8 15 6 13 -2 20 1 20 11 0 8 5 12 10 9 6 -3
10 -1 10 5 0 6 4 9 8 6 5 -3 18 3 29 14 12 10 24 16 27 13 3 -4 6 0 6 7 0 7 3
10 7 7 3 -4 21 4 38 18 18 13 35 21 39 18 3 -4 6 0 6 7 0 7 3 11 6 7 4 -3 22
5 40 20 19 14 34 21 34 17 0 -5 5 -1 11 9 6 9 14 15 20 12 5 -4 12 0 15 9 3 8
11 13 18 10 7 -3 19 2 26 11 7 8 19 15 26 15 8 0 14 5 14 10 0 6 7 10 15 10 8
0 15 5 15 11 0 5 5 7 10 4 6 -3 13 1 16 9 3 9 10 13 15 11 4 -3 17 2 27 12 10
10 25 19 32 21 8 2 26 12 40 22 15 11 30 17 33 13 4 -3 9 2 13 11 3 9 10 13
15 10 5 -3 9 0 9 5 0 6 8 11 19 11 10 0 24 7 31 15 7 8 19 15 28 15 8 0 13 3
9 6 -7 7 60 44 81 44 7 0 11 4 8 8 -3 5 11 14 30 21 18 7 34 17 34 22 0 6 5 7
10 4 6 -3 10 -3 10 2 0 4 15 15 33 22 17 8 38 21 45 28 8 7 17 11 22 8 4 -3
10 2 14 10 3 8 12 15 21 15 8 0 15 4 15 10 0 5 3 10 8 9 13 -2 52 13 52 21 0
4 18 15 40 25 22 10 45 24 51 31 6 8 15 12 19 9 4 -2 16 5 28 15 12 11 28 20
37 20 8 0 15 5 15 11 0 5 5 7 10 4 6 -3 10 -2 10 3 0 5 29 24 65 43 36 18 65
37 65 42 0 4 5 5 10 2 6 -3 10 -1 10 5 0 6 4 9 8 6 5 -3 18 3 29 14 12 10 24
16 27 13 3 -4 6 -1 6 5 0 7 7 12 16 12 9 0 25 9 35 21 9 11 20 20 24 19 10 -2
65 25 65 32 0 5 5 8 10 8 6 0 28 11 50 25 22 14 46 25 54 25 8 0 17 7 20 16 3
8 10 12 16 9 5 -3 10 1 10 9 0 10 6 13 15 10 8 -4 15 -1 15 5 0 6 6 10 13 8 6
-1 11 3 10 10 -2 7 4 10 12 7 8 -4 17 1 21 9 3 9 12 13 20 10 8 -3 14 0 14 7
0 6 5 8 10 5 6 -3 10 -2 10 3 0 5 28 23 63 41 34 18 67 39 74 48 6 8 16 12 22
8 6 -3 11 -1 11 5 0 6 5 8 10 5 6 -3 10 -1 10 5 0 6 4 9 9 6 5 -3 11 1 15 9 3
8 12 15 21 15 8 0 15 5 15 11 0 5 5 7 10 4 6 -3 10 -1 10 5 0 6 4 9 8 6 5 -3
18 2 28 12 33 28 64 43 76 36 6 -4 8 -3 5 3 -8 12 20 27 42 24 7 -1 11 2 8 6
-3 5 11 18 31 28 20 11 40 24 44 30 4 5 8 6 8 2 0 -5 13 1 29 12 16 12 34 21
40 21 6 0 11 3 11 8 0 7 55 34 65 32 4 -1 15 8 24 19 10 12 26 21 35 21 9 0
16 5 16 10 0 6 7 10 15 10 8 0 15 5 15 11 0 5 4 8 9 4 5 -3 12 -1 16 4 3 5 20
17 38 27 67 35 103 55 142 80 22 14 48 27 58 31 9 3 17 9 17 14 0 5 7 9 15 9
9 0 25 9 37 19 11 11 27 17 36 14 9 -4 13 -2 9 4 -6 9 11 23 28 22 3 0 13 7
21 16 9 8 20 13 25 9 5 -3 12 2 15 10 3 9 12 16 19 16 7 0 24 9 37 20 14 10
28 17 30 14 3 -2 11 2 18 11 7 8 18 15 25 15 8 0 15 3 17 8 5 11 84 52 92 47
3 -3 4 -2 1 2 -7 9 33 35 45 28 6 -3 10 1 10 9 0 10 6 13 17 9 10 -4 14 -2 10
4 -4 6 4 14 18 17 13 3 34 16 46 29 12 12 19 16 15 10 -5 -9 -2 -11 8 -7 9 3
16 9 16 14 0 4 18 15 40 25 22 10 40 21 40 25 0 5 11 11 25 14 14 4 25 11 25
17 0 6 4 7 10 4 5 -3 20 3 32 15 12 11 29 18 37 15 9 -3 12 -3 8 1 -9 9 53 49
71 46 6 -2 12 2 12 8 0 6 14 16 30 21 17 6 30 14 30 18 0 4 16 13 35 21 19 8
35 17 35 22 0 4 6 8 14 8 8 0 22 7 30 16 9 8 16 12 16 7 0 -4 7 0 14 10 8 10
17 18 20 18 17 -2 94 44 89 52 -3 6 -1 7 5 3 6 -3 16 0 24 7 7 8 19 12 27 9 8
-3 11 0 7 7 -4 6 -2 12 3 12 6 1 16 2 21 3 6 0 14 6 18 11 4 6 14 11 22 13 8
2 19 10 23 18 5 8 12 12 18 9 5 -4 9 -1 9 4 0 6 3 10 8 9 14 -3 62 22 62 32 0
5 3 9 8 9 21 -4 32 2 26 13 -5 8 -2 9 10 5 10 -4 19 -1 22 8 4 8 10 13 14 10
5 -3 16 2 24 11 9 8 16 12 16 8 0 -4 9 1 20 11 11 10 20 14 20 9 0 -5 7 0 15
10 8 11 15 16 15 12 0 -4 12 1 28 12 15 10 44 26 65 36 20 9 35 21 32 26 -3 5
4 7 15 5 11 -2 20 0 20 6 0 5 7 9 16 9 9 0 12 5 8 12 -4 7 -3 8 5 4 6 -4 18
-2 26 4 11 9 12 15 2 25 -7 7 -15 11 -20 8 -4 -2 -10 3 -13 12 -4 9 -13 14
-20 11 -8 -3 -14 -1 -14 5 0 6 -7 9 -14 6 -11 -4 -13 -1 -9 11 3 9 2 14 -2 9
-5 -4 -17 0 -27 10 -10 9 -18 13 -18 9 0 -4 -7 0 -16 9 -9 9 -29 19 -45 22
-16 3 -29 12 -29 19 0 8 -4 14 -10 14 -21 0 -25 2 -41 16 -9 8 -19 11 -22 7
-4 -3 -7 1 -7 11 0 9 -4 15 -9 11 -5 -3 -12 -1 -16 5 -4 6 -10 8 -15 5 -4 -3
-11 2 -14 11 -3 8 -10 12 -16 9 -5 -3 -10 -2 -10 3 0 5 -8 13 -17 16 -22 8
-56 28 -75 44 -8 6 -18 9 -21 5 -4 -3 -7 0 -7 7 0 7 -3 11 -6 7 -4 -3 -13 1
-21 9 -8 8 -19 11 -25 8 -6 -4 -9 -3 -5 2 3 5 -12 19 -34 31 -22 12 -36 16
-33 10 4 -7 -3 -2 -15 11 -20 20 -34 26 -53 23 -5 0 -8 6 -8 15 0 9 -6 14 -12
12 -7 -3 -21 4 -32 13 -10 10 -23 16 -28 13 -4 -3 -8 -1 -8 4 0 4 -20 19 -45
31 -24 12 -47 26 -50 32 -4 5 -11 7 -16 4 -5 -4 -9 -1 -9 4 0 6 -7 11 -15 11
-8 0 -15 5 -15 11 0 5 -4 8 -9 4 -5 -3 -16 2 -24 10 -9 8 -20 15 -26 15 -6 0
-11 5 -11 11 0 5 -4 8 -9 4 -6 -3 -13 0 -18 7 -9 15 -92 58 -111 58 -7 0 -10
5 -7 10 5 9 -1 12 -21 9 -4 0 -10 3 -13 8 -3 5 -27 20 -53 33 -27 14 -48 29
-48 33 0 5 -5 5 -10 2 -6 -3 -13 0 -16 9 -3 8 -11 13 -19 10 -7 -3 -15 2 -18
10 -4 9 -14 16 -23 16 -9 0 -23 8 -31 18 -8 9 -11 11 -8 4 6 -11 3 -11 -14 0
-12 7 -21 17 -21 21 0 5 -7 6 -16 3 -8 -3 -13 -2 -9 3 3 5 -11 15 -30 21 -19
6 -33 16 -29 21 3 5 2 8 -3 7 -12 -4 -73 25 -73 34 0 5 -9 8 -21 8 -13 0 -18
4 -13 12 5 8 2 9 -10 5 -10 -4 -19 -1 -22 8 -4 8 -12 15 -20 15 -8 0 -14 4
-14 10 0 5 -3 9 -7 8 -12 -4 -73 26 -73 34 0 5 -7 8 -15 8 -8 0 -15 5 -15 10
0 6 -8 10 -17 10 -10 0 -29 9 -43 20 -14 11 -31 20 -37 20 -7 0 -13 5 -13 11
0 5 -4 7 -10 4 -5 -3 -10 -1 -10 6 0 7 -3 10 -6 6 -4 -3 -13 1 -21 9 -8 8 -18
12 -23 9 -4 -3 -11 2 -14 11 -3 8 -10 12 -16 9 -6 -3 -13 0 -16 9 -3 9 -12 12
-22 9 -9 -4 -14 -2 -9 2 7 8 -64 47 -79 44 -4 0 -11 6 -16 15 -5 9 -13 14 -19
11 -5 -4 -9 -2 -9 3 0 5 -9 12 -20 15 -33 9 -35 9 -46 25 -6 8 -16 12 -22 8
-7 -4 -12 -2 -12 3 0 6 -7 11 -16 11 -8 0 -12 5 -9 10 3 6 -3 10 -15 10 -11 0
-23 7 -27 16 -3 8 -12 13 -19 10 -8 -3 -14 -2 -14 3 0 12 -50 32 -62 25 -6 -4
-8 -2 -5 3 4 6 -10 19 -31 30 -20 10 -50 27 -65 37 -15 10 -30 16 -34 12 -3
-3 -13 3 -20 14 -8 11 -19 18 -24 15 -5 -4 -9 -1 -9 5 0 6 -5 8 -10 5 -6 -3
-13 1 -16 9 -3 9 -14 16 -24 16 -10 0 -23 7 -30 15 -7 8 -16 12 -21 9 -5 -3
-9 0 -9 5 0 6 -9 11 -21 11 -11 0 -18 4 -15 8 2 4 -4 14 -16 21 -13 8 -18 9
-13 1 5 -8 0 -7 -13 1 -12 7 -18 17 -16 21 3 5 2 7 -3 6 -13 -4 -73 23 -73 33
0 5 -8 9 -18 9 -10 0 -28 9 -40 20 -12 12 -22 18 -22 15 0 -8 -114 56 -118 66
-2 5 -12 9 -22 9 -10 0 -21 4 -24 9 -3 5 -24 18 -45 29 -62 33 -85 46 -103 61
-10 8 -18 10 -18 5 0 -5 -7 0 -15 10 -8 11 -15 16 -15 12 0 -5 -7 -3 -15 4 -8
7 -15 9 -15 6 0 -4 -7 0 -16 8 -8 9 -20 13 -26 10 -6 -4 -8 -3 -5 2 3 6 -3 16
-15 23 -16 10 -19 10 -13 -1 3 -7 1 -6 -7 3 -7 9 -23 19 -36 23 -12 4 -22 12
-22 17 0 5 -8 9 -18 9 -10 0 -28 9 -40 21 -12 11 -27 17 -32 14 -6 -3 -10 1
-10 9 0 10 -6 13 -15 10 -8 -4 -15 -1 -15 4 0 11 -38 28 -53 24 -5 -1 -6 2 -2
8 6 9 -7 14 -27 11 -5 0 -8 4 -8 9 0 6 -6 10 -14 10 -8 0 -16 3 -18 8 -1 4
-24 18 -50 32 -27 13 -48 28 -48 33 0 4 -4 6 -9 2 -5 -3 -16 2 -24 10 -9 8
-23 15 -32 15 -9 0 -13 5 -10 10 3 6 -3 10 -14 10 -12 0 -21 5 -21 10 0 6 -9
10 -20 10 -11 0 -20 4 -20 9 0 5 -13 14 -30 21 -16 7 -30 15 -30 19 0 9 -62
34 -79 32 -7 -1 -10 2 -7 7 6 10 -62 48 -76 44 -5 -1 -8 5 -8 14 0 8 -4 12
-10 9 -5 -3 -10 -1 -10 5 0 7 -6 10 -12 8 -7 -3 -21 4 -32 14 -11 10 -26 18
-33 18 -7 0 -13 4 -13 9 0 5 -11 12 -25 15 -14 4 -25 11 -25 17 0 6 -5 7 -10
4 -5 -3 -10 -1 -10 4 0 6 -6 11 -13 11 -7 0 -22 8 -33 18 -11 9 -26 18 -33 20
-7 1 -19 9 -27 17 -8 7 -23 17 -34 20 -11 3 -20 11 -20 16 0 6 -4 8 -9 5 -4
-3 -19 3 -32 14 -12 12 -33 23 -46 26 -13 4 -23 10 -23 15 0 5 -7 9 -15 9 -8
0 -15 5 -15 10 0 6 -6 10 -13 10 -8 0 -33 14 -55 30 -23 17 -46 30 -52 30 -5
0 -10 5 -10 10 0 6 -3 9 -7 8 -12 -4 -73 26 -73 34 0 5 -6 8 -14 8 -8 0 -16 5
-18 10 -2 6 -13 12 -26 13 -12 0 -22 7 -22 15 0 7 -5 10 -11 6 -6 -3 -14 -2
-18 4 -7 11 -72 47 -251 138 -63 33 -117 62 -118 67 -2 4 -8 5 -13 1 -5 -3 -9
0 -9 6 0 6 -4 9 -9 5 -5 -3 -12 -1 -16 5 -3 5 -15 10 -26 10 -10 0 -19 5 -19
11 0 5 -4 7 -10 4 -5 -3 -10 -1 -10 5 0 7 -6 10 -14 7 -8 -3 -16 -2 -18 3 -2
5 -13 11 -25 13 -12 2 -26 6 -29 10 -4 4 -14 7 -21 7 -8 0 -36 23 -63 50 -27
28 -54 50 -60 50 -6 0 -8 5 -5 10 3 6 0 10 -8 10 -8 0 -22 9 -32 20 -10 11
-24 20 -32 20 -7 0 -22 5 -33 10 -11 6 -29 15 -41 21 -17 8 -19 8 -13 -3 6
-10 5 -10 -7 -2 -15 12 -133 13 -145 1 -4 -4 -20 -7 -36 -7 -16 0 -27 -4 -24
-9 4 -5 -5 -8 -19 -6 -14 1 -25 -2 -25 -7 0 -5 -4 -6 -10 -3 -5 3 -10 1 -10
-5 0 -6 -4 -8 -10 -5 -5 3 -10 1 -10 -5 0 -6 -4 -9 -9 -6 -5 3 -14 -1 -21 -9
-7 -8 -16 -12 -21 -9 -5 3 -9 0 -9 -7 0 -7 -3 -9 -7 -6 -3 4 -12 2 -20 -4 -7
-6 -13 -8 -13 -5 0 4 -10 -2 -22 -13 -11 -11 -25 -18 -30 -15 -4 3 -8 0 -8 -5
0 -6 -7 -11 -15 -11 -8 0 -15 -5 -15 -11 0 -5 -4 -7 -10 -4 -5 3 -10 1 -10 -5
0 -7 -7 -9 -17 -6 -10 4 -14 4 -10 0 9 -10 -65 -54 -78 -47 -5 4 -7 2 -2 -2 4
-5 -10 -17 -30 -26 -21 -10 -33 -19 -28 -19 9 0 -22 -21 -55 -36 -8 -4 -37
-21 -64 -38 -27 -17 -53 -30 -58 -28 -4 1 -8 -2 -8 -8 0 -5 -16 -17 -35 -26
-19 -9 -33 -20 -30 -24 3 -5 -4 -6 -15 -3 -14 4 -20 1 -18 -8 2 -8 -3 -13 -10
-11 -7 1 -15 -5 -18 -13 -3 -8 -10 -13 -14 -10 -4 3 -13 -2 -20 -10 -7 -8 -21
-15 -31 -15 -10 0 -24 -8 -31 -19 -13 -18 -18 -21 -39 -21 -5 0 -7 -5 -3 -12
4 -6 3 -8 -3 -5 -5 3 -26 -5 -46 -18 -20 -14 -41 -25 -46 -25 -6 0 -11 -4 -11
-10 0 -5 -7 -10 -15 -10 -9 0 -25 -9 -37 -20 -12 -10 -25 -17 -29 -14 -4 2
-10 0 -14 -6 -4 -6 -11 -7 -17 -4 -6 4 -8 3 -5 -2 3 -6 -28 -27 -69 -48 -41
-20 -74 -41 -74 -46 0 -5 -6 -7 -13 -4 -7 2 -22 -3 -33 -13 -11 -10 -26 -19
-34 -21 -8 -2 -19 -8 -25 -15 -5 -7 -17 -12 -25 -12 -8 0 -14 -7 -12 -15 2 -8
0 -12 -3 -8 -4 4 -20 1 -36 -8 -16 -8 -29 -11 -29 -7 0 5 -5 0 -11 -9 -5 -10
-17 -18 -24 -18 -8 0 -15 -5 -15 -11 0 -5 -4 -7 -10 -4 -5 3 -10 2 -10 -4 0
-5 -16 -15 -34 -22 -19 -7 -33 -16 -30 -21 3 -4 -4 -8 -15 -8 -12 0 -21 -5
-21 -11 0 -5 -4 -7 -10 -4 -5 3 -10 1 -10 -5 0 -6 -13 -16 -30 -21 -16 -6 -28
-15 -25 -19 3 -4 -7 -11 -22 -15 -16 -3 -30 -10 -33 -14 -8 -12 -85 -56 -92
-53 -5 1 -8 -2 -8 -8 0 -5 -7 -10 -15 -10 -8 0 -15 -3 -15 -7 0 -5 -18 -17
-40 -27 -22 -11 -40 -23 -40 -28 0 -5 -4 -6 -10 -3 -5 3 -10 1 -10 -4 0 -6 -7
-11 -15 -11 -8 0 -15 -4 -15 -10 0 -5 -7 -10 -16 -10 -9 0 -12 -5 -8 -12 4 -7
3 -8 -5 -4 -6 4 -24 -1 -39 -11 -49 -32 -66 -43 -109 -65 -23 -12 -39 -26 -36
-32 3 -6 3 -8 -2 -4 -4 4 -14 3 -22 -3 -7 -6 -13 -8 -13 -4 0 5 -8 -1 -17 -11
-10 -10 -25 -19 -33 -19 -8 0 -14 -5 -13 -12 2 -7 -4 -10 -12 -7 -8 4 -15 2
-15 -3 0 -5 -16 -15 -35 -23 -19 -8 -35 -17 -35 -22 0 -4 -7 -8 -15 -8 -9 0
-18 -6 -21 -14 -3 -8 -12 -12 -20 -9 -7 3 -17 -2 -20 -11 -3 -9 -14 -16 -24
-16 -10 0 -21 -7 -24 -16 -3 -8 -10 -12 -16 -9 -5 3 -10 1 -10 -6 0 -7 -3 -10
-6 -7 -5 6 -60 -26 -91 -52 -7 -6 -13 -8 -13 -5 0 6 -49 -24 -68 -42 -7 -7
-20 -9 -29 -6 -9 4 -14 2 -10 -3 3 -5 -8 -17 -24 -27 -18 -10 -27 -12 -23 -4
4 6 -1 4 -12 -6 -24 -23 -84 -60 -104 -63 -8 -2 -16 -8 -18 -13 -2 -6 -10 -11
-18 -11 -8 0 -14 -5 -14 -11 0 -5 -4 -7 -10 -4 -5 3 -10 1 -10 -4 0 -6 -7 -11
-15 -11 -8 0 -23 -8 -33 -17 -10 -10 -25 -19 -33 -21 -8 -2 -16 -8 -17 -13 -2
-5 -8 -7 -13 -3 -5 3 -9 1 -9 -4 0 -6 -11 -13 -25 -16 -16 -4 -23 -11 -19 -18
5 -8 2 -9 -9 -5 -10 4 -17 1 -17 -5 0 -6 -3 -9 -6 -5 -4 3 -22 -5 -40 -20 -19
-14 -34 -22 -34 -19 0 4 -10 -2 -22 -13 -11 -11 -25 -18 -30 -15 -4 3 -8 0 -8
-6 0 -6 -4 -8 -10 -5 -5 3 -10 1 -10 -6 0 -7 -3 -10 -6 -6 -4 3 -12 1 -20 -6
-25 -23 -40 -32 -54 -35 -8 -2 -20 -10 -27 -19 -6 -8 -16 -12 -22 -8 -6 3 -11
1 -11 -4 0 -6 -7 -11 -15 -11 -8 0 -15 -4 -15 -10 0 -5 -7 -10 -15 -10 -8 0
-15 -5 -15 -11 0 -5 -4 -8 -9 -4 -5 3 -12 1 -16 -5 -4 -6 -11 -7 -17 -4 -6 4
-8 3 -5 -3 3 -5 -9 -16 -28 -23 -19 -8 -35 -18 -35 -22 0 -5 -4 -7 -9 -4 -5 3
-12 -1 -15 -10 -3 -8 -10 -13 -14 -10 -5 3 -18 -2 -28 -12 -11 -9 -26 -18 -33
-20 -7 -1 -25 -12 -41 -23 -15 -12 -33 -18 -39 -14 -7 4 -10 1 -9 -7 2 -7 -3
-12 -10 -10 -7 1 -15 -4 -18 -12 -3 -9 -12 -12 -21 -9 -12 5 -14 3 -8 -7 6
-10 4 -12 -8 -7 -10 3 -17 2 -17 -3 0 -6 -7 -10 -15 -10 -8 0 -15 -4 -15 -10
0 -5 -7 -10 -15 -10 -8 0 -15 -5 -15 -11 0 -5 -4 -7 -10 -4 -5 3 -10 1 -10 -4
0 -6 -9 -11 -20 -11 -11 0 -20 -4 -20 -8 0 -5 -18 -17 -40 -27 -22 -10 -40
-22 -40 -27 0 -5 -4 -6 -10 -3 -5 3 -10 1 -10 -6 0 -7 -3 -9 -6 -6 -8 8 -64
-24 -64 -36 0 -4 -4 -6 -9 -3 -4 3 -19 -3 -31 -14 -21 -18 -28 -21 -46 -19 -3
0 -12 -8 -20 -18 -7 -10 -14 -14 -14 -10 0 5 -12 -1 -26 -12 -15 -11 -30 -19
-34 -16 -4 3 -11 -2 -14 -11 -3 -8 -10 -12 -16 -9 -5 3 -10 2 -10 -4 0 -6 -11
-13 -25 -17 -14 -3 -22 -11 -18 -17 4 -6 0 -8 -10 -4 -10 3 -17 3 -17 -1 0 -5
-16 -14 -35 -22 -19 -8 -35 -18 -35 -22 0 -5 -4 -6 -10 -3 -5 3 -10 2 -10 -2
0 -5 -18 -16 -40 -26 -22 -9 -40 -22 -40 -28 0 -5 -4 -8 -9 -4 -5 3 -12 1 -16
-5 -4 -6 -10 -8 -15 -5 -5 3 -13 -3 -19 -12 -6 -10 -11 -14 -11 -9 0 5 -9 1
-20 -9 -11 -10 -20 -14 -20 -10 0 5 -7 0 -16 -11 -8 -10 -12 -12 -8 -4 6 13 5
13 -12 -1 -38 -30 -77 -52 -69 -38 3 8 1 7 -7 -2 -7 -8 -34 -26 -60 -39 -27
-13 -48 -27 -48 -31 0 -5 -6 -6 -14 -3 -7 3 -20 -2 -29 -10 -8 -8 -33 -23 -56
-33 -22 -10 -41 -21 -41 -26 0 -4 -4 -5 -10 -2 -5 3 -10 1 -10 -5 0 -6 -4 -8
-10 -5 -5 3 -10 1 -10 -4 0 -6 -3 -11 -7 -10 -16 2 -53 -14 -53 -23 0 -6 -6
-8 -14 -5 -8 3 -17 -1 -20 -9 -3 -9 -10 -12 -16 -9 -6 3 -22 -2 -38 -13 -27
-18 -62 -19 -62 -1 0 5 -3 9 -7 8 -16 -2 -53 14 -53 22 0 5 -7 9 -15 9 -8 0
-15 5 -15 10 0 6 -6 10 -14 10 -7 0 -25 9 -39 20 -14 11 -32 20 -41 20 -9 0
-16 5 -16 10 0 6 -7 10 -15 10 -8 0 -15 4 -15 10 0 5 -3 9 -7 8 -11 -2 -63 24
-63 32 0 3 -16 12 -35 19 -19 7 -35 17 -35 22 0 5 -9 9 -20 9 -11 0 -23 7 -26
15 -4 8 -10 12 -15 9 -5 -3 -9 0 -9 6 0 6 -4 9 -9 5 -6 -3 -14 3 -20 12 -6 10
-11 14 -11 10 0 -9 -93 43 -98 55 -2 5 -8 6 -13 2 -5 -3 -9 0 -9 5 0 6 -6 11
-14 11 -7 0 -19 7 -26 15 -7 9 -19 14 -27 11 -7 -3 -13 1 -13 9 0 8 -6 15 -14
15 -21 0 -67 26 -59 33 3 4 -3 7 -15 7 -12 0 -22 4 -22 8 0 4 -16 14 -35 21
-19 7 -35 16 -35 20 0 4 -16 13 -35 20 -19 7 -35 17 -35 22 0 6 -5 7 -10 4 -6
-3 -13 1 -16 9 -3 9 -15 16 -25 16 -11 0 -22 6 -25 14 -3 8 -12 12 -20 9 -8
-3 -14 0 -14 7 0 6 -4 8 -10 5 -5 -3 -10 -2 -10 4 0 6 -17 18 -37 28 -21 9
-40 20 -43 23 -3 3 -20 12 -37 19 -18 7 -30 17 -27 22 3 5 -3 9 -14 9 -11 0
-31 9 -44 20 -14 10 -28 16 -32 13 -3 -3 -6 -1 -6 6 0 7 -4 9 -10 6 -5 -3 -10
-1 -10 4 0 6 -5 11 -11 11 -6 0 -17 7 -26 15 -8 8 -19 13 -24 10 -5 -4 -9 -1
-9 4 0 6 -7 11 -15 11 -8 0 -15 5 -15 11 0 6 -7 9 -15 5 -8 -3 -14 0 -12 7 1
7 -4 11 -12 9 -7 -1 -21 7 -31 18 -10 12 -22 22 -27 22 -12 1 -37 11 -43 17
-6 7 -39 26 -95 55 -22 12 -42 24 -45 27 -11 13 -68 38 -74 32 -3 -4 -6 1 -6
11 0 9 -4 15 -10 11 -5 -3 -18 3 -30 15 -11 11 -20 16 -20 10 0 -5 -9 -1 -20
10 -11 11 -27 20 -35 20 -8 0 -15 5 -15 10 0 6 -7 10 -15 10 -8 0 -15 5 -15
11 0 5 -4 7 -10 4 -5 -3 -10 -1 -10 5 0 7 -6 10 -14 7 -8 -3 -22 5 -32 18 -13
17 -20 21 -26 12 -6 -9 -8 -9 -8 0 0 7 -16 20 -35 29 -19 9 -35 21 -35 26 0 5
-5 6 -11 2 -6 -3 -14 -2 -18 3 -10 15 -81 55 -81 46 0 -4 -4 -3 -8 2 -13 18
-71 55 -87 55 -8 0 -15 5 -15 10 0 6 -7 10 -15 10 -8 0 -15 4 -15 9 0 5 -11
12 -25 15 -14 4 -23 11 -20 16 3 6 -1 7 -9 4 -9 -3 -16 -1 -16 6 0 6 -4 9 -9
6 -5 -3 -14 1 -21 9 -7 8 -19 15 -26 15 -8 0 -14 5 -14 11 0 5 -4 7 -10 4 -5
-3 -10 -1 -10 5 0 6 -4 9 -9 6 -5 -4 -11 -2 -13 3 -1 4 -33 24 -70 43 -37 20
-65 37 -63 40 2 2 -7 8 -21 15 -18 8 -22 8 -17 0 3 -7 -3 -4 -14 6 -11 9 -23
14 -27 10 -4 -5 -6 -1 -4 7 2 8 -3 14 -9 12 -7 -1 -13 2 -13 8 0 5 -7 10 -15
10 -9 0 -21 5 -28 10 -29 24 -90 61 -94 56 -3 -3 -14 4 -26 15 -11 10 -27 19
-34 19 -7 0 -13 3 -13 8 0 9 -49 32 -68 32 -7 0 -11 4 -8 8 3 5 -17 19 -44 31
-28 13 -50 27 -50 32 0 5 -9 9 -20 9 -11 0 -20 4 -20 8 0 5 -16 14 -35 22 -19
8 -35 17 -35 22 0 4 -6 8 -14 8 -7 0 -19 7 -26 15 -7 8 -16 12 -21 9 -5 -3 -9
-1 -9 4 0 4 -16 14 -35 22 -19 8 -35 17 -35 22 0 4 -6 8 -13 8 -7 0 -22 8 -33
18 -11 10 -25 17 -32 14 -6 -2 -12 1 -12 8 0 6 -4 8 -10 5 -5 -3 -10 1 -10 9
0 10 -6 13 -15 10 -8 -4 -15 -1 -15 6 0 7 -7 10 -17 6 -10 -4 -14 -4 -10 0 9
9 -23 33 -45 34 -10 0 -18 7 -18 16 0 9 -6 14 -12 12 -7 -3 -36 10 -65 29 -29
18 -56 33 -62 33 -5 0 -12 6 -14 13 -4 8 -6 8 -6 -3 -1 -10 -6 -8 -17 8 -8 12
-22 22 -30 22 -8 0 -13 4 -10 8 2 4 -4 9 -15 9 -10 1 -26 9 -35 17 -9 9 -20
14 -25 11 -5 -4 -9 1 -9 9 0 9 -3 15 -7 14 -15 -4 -53 13 -53 23 0 6 -4 7 -10
4 -5 -3 -10 -1 -10 5 0 6 -4 8 -10 5 -5 -3 -10 -1 -10 4 0 6 -7 11 -15 11 -8
0 -15 5 -15 10 0 6 -9 10 -20 10 -11 0 -20 5 -20 10 0 6 -7 10 -15 10 -8 0
-15 5 -15 11 0 5 -4 7 -10 4 -5 -3 -10 -1 -10 4 0 6 -4 11 -10 11 -5 0 -32 13
-60 30 -27 16 -50 26 -50 22 0 -4 -5 1 -11 11 -6 9 -14 15 -20 12 -5 -4 -9 -1
-9 4 0 6 -7 11 -15 11 -8 0 -15 3 -15 8 0 4 -15 13 -32 21 -18 8 -41 21 -52
30 -10 9 -21 16 -25 16 -3 0 -5 5 -3 10 2 6 0 7 -4 3 -6 -7 -81 27 -94 43 -3
3 -20 12 -37 20 -18 8 -33 17 -33 21 0 5 -9 8 -21 8 -11 0 -17 5 -14 10 3 6
-3 10 -14 10 -12 0 -21 3 -21 8 0 4 -22 17 -50 30 -27 13 -50 28 -50 33 0 6
-4 7 -10 4 -5 -3 -10 -1 -10 5 0 6 -4 8 -10 5 -5 -3 -10 -1 -10 5 0 6 -4 9 -9
6 -5 -3 -11 1 -15 9 -3 8 -17 15 -31 15 -16 0 -25 6 -25 16 0 8 -4 13 -8 10
-4 -2 -27 9 -51 25 -24 16 -53 29 -63 29 -11 0 -17 4 -13 9 3 5 -11 15 -30 22
-19 7 -35 17 -35 21 0 4 -7 8 -15 8 -8 0 -15 5 -15 11 0 5 -4 8 -10 4 -5 -3
-18 3 -29 14 -11 11 -22 17 -25 14 -3 -4 -6 -1 -6 6 0 7 -4 9 -10 6 -5 -3 -10
-1 -10 5 0 6 -4 8 -10 5 -5 -3 -10 -2 -10 4 0 9 -43 28 -47 20 -1 -2 -8 3 -15
12 -7 9 -26 20 -43 24 -37 10 -43 12 -52 15 -5 1 -11 2 -15 1 -5 0 -8 3 -8 7
0 5 -34 8 -75 8 -41 0 -75 -3 -75 -6z"/>
</g>
</svg>
